<svg width="41" height="36" viewBox="0 0 41 36" fill="none" xmlns="http://www.w3.org/2000/svg">
<path d="M3 17V20" stroke="white" stroke-linecap="round"/>
<path d="M4 19L4 20" stroke="white" stroke-linecap="round"/>
<path d="M2 19L2 20" stroke="white" stroke-linecap="round"/>
<path d="M1 20L2 21.7321" stroke="white" stroke-linecap="round"/>
<path d="M5 21C5 21.7364 3.72782 22.5 3 22.5C2.27218 22.5 1.5 22.2364 1.5 21.5C1.5 20.7636 2.27218 19 3 19C3.72782 19 5 20.2636 5 21Z" fill="white"/>
<path d="M4.5 20V21" stroke="white" stroke-linecap="round"/>
<path d="M17 17V20" stroke="white" stroke-linecap="round"/>
<path d="M16 19L16 20" stroke="white" stroke-linecap="round"/>
<path d="M18 19L18 20" stroke="white" stroke-linecap="round"/>
<path d="M19 20L18 21.7321" stroke="white" stroke-linecap="round"/>
<path d="M15 21C15 21.7364 16.2722 22.5 17 22.5C17.7278 22.5 18.5 22.2364 18.5 21.5C18.5 20.7636 17.7278 19 17 19C16.2722 19 15 20.2636 15 21Z" fill="white"/>
<path d="M15.5 20V21" stroke="white" stroke-linecap="round"/>
<circle cx="10" cy="17" r="5" fill="white"/>
<circle cx="12.5" cy="17.5" r="0.5" fill="#1E1E1E"/>
<path d="M11 20C11 19.8687 10.9741 19.7386 10.9239 19.6173C10.8736 19.496 10.8 19.3858 10.7071 19.2929C10.6142 19.2 10.504 19.1264 10.3827 19.0761C10.2614 19.0259 10.1313 19 10 19C9.86868 19 9.73864 19.0259 9.61732 19.0761C9.49599 19.1264 9.38575 19.2 9.29289 19.2929C9.20003 19.3858 9.12638 19.496 9.07612 19.6173C9.02587 19.7386 9 19.8687 9 20" stroke="#FF0000" stroke-width="0.5" stroke-linecap="round"/>
<circle cx="7.5" cy="17.5" r="0.5" fill="#1E1E1E"/>
<circle cx="10" cy="18" r="0.5" fill="#FF0000"/>
<path d="M11 14.5C11 15.3284 9.20914 16 7 16C4.79086 16 3 15.3284 3 14.5C3 13.6716 4.79086 13 7 13C9.20914 13 11 13.6716 11 14.5Z" fill="#3300FF"/>
<path d="M7 12.5C7 13.3284 6.32843 14 5.5 14C4.67157 14 4 13.3284 4 12.5C4 11.6716 4.67157 11 5.5 11C6.32843 11 7 11.6716 7 12.5Z" fill="#3300FF"/>
<path d="M8 15.5C8 16.3284 7.32843 16.5 6.5 16.5C5.67157 16.5 5 16.3284 5 15.5C5 14.6716 5.67157 14 6.5 14C7.32843 14 8 14.6716 8 15.5Z" fill="#3300FF"/>
<path d="M9 10.5C9 11.3284 8.32843 12 7.5 12C6.67157 12 6 11.3284 6 10.5C6 9.67157 6.67157 9 7.5 9C8.32843 9 9 9.67157 9 10.5Z" fill="#3300FF"/>
<path d="M12 9.5C12 10.3284 11.3284 11 10.5 11C9.67157 11 9 10.3284 9 9.5C9 8.67157 9.67157 8 10.5 8C11.3284 8 12 8.67157 12 9.5Z" fill="#3300FF"/>
<path d="M16 11.5C16 12.3284 15.3284 13 14.5 13C13.6716 13 13 12.3284 13 11.5C13 10.6716 13.6716 10 14.5 10C15.3284 10 16 10.6716 16 11.5Z" fill="#3300FF"/>
<path d="M14 10.5C14 11.3284 13.3284 12 12.5 12C11.6716 12 11 11.3284 11 10.5C11 9.67157 11.6716 9 12.5 9C13.3284 9 14 9.67157 14 10.5Z" fill="#3300FF"/>
<path d="M13 11.5C13 12.3284 11.8807 13 10.5 13C9.11929 13 8 12.3284 8 11.5C8 10.6716 9.11929 10 10.5 10C11.8807 10 13 10.6716 13 11.5Z" fill="#3300FF"/>
<path d="M13 10.5C13 11.3284 11.8807 12 10.5 12C9.11929 12 8 11.3284 8 10.5C8 9.67157 9.11929 9 10.5 9C11.8807 9 13 9.67157 13 10.5Z" fill="#3300FF"/>
<path d="M15 14.5C15 15.3284 13.8807 16 12.5 16C11.1193 16 10 15.3284 10 14.5C10 13.6716 11.1193 13 12.5 13C13.8807 13 15 13.6716 15 14.5Z" fill="#3300FF"/>
<path d="M16 14.5C16 15.3284 15.3284 16 14.5 16C13.6716 16 13 15.3284 13 14.5C13 13.6716 13.6716 13 14.5 13C15.3284 13 16 13.6716 16 14.5Z" fill="#3300FF"/>
<path d="M11 14.5C11 15.3284 10.3284 16 9.5 16C8.67157 16 8 15.3284 8 14.5C8 13.6716 8.67157 13 9.5 13C10.3284 13 11 13.6716 11 14.5Z" fill="#3300FF"/>
<path d="M14 13C14 14.1046 12.2091 15 10 15C7.79086 15 6 14.1046 6 13C6 11.8954 7.79086 11 10 11C12.2091 11 14 11.8954 14 13Z" fill="#3300FF"/>
<path d="M17 12.5C17 13.3284 16.1046 14 15 14C13.8954 14 13 13.3284 13 12.5C13 11.6716 13.8954 11 15 11C16.1046 11 17 11.6716 17 12.5Z" fill="#3300FF"/>
<path d="M24 9V12" stroke="white" stroke-linecap="round"/>
<path d="M25 11L25 12" stroke="white" stroke-linecap="round"/>
<path d="M23 11L23 12" stroke="white" stroke-linecap="round"/>
<path d="M22 12L23 13.7321" stroke="white" stroke-linecap="round"/>
<path d="M26 13C26 13.7364 24.7278 14.5 24 14.5C23.2722 14.5 22.5 14.2364 22.5 13.5C22.5 12.7636 23.2722 11 24 11C24.7278 11 26 12.2636 26 13Z" fill="white"/>
<path d="M25.5 12V13" stroke="white" stroke-linecap="round"/>
<path d="M38 9V12" stroke="white" stroke-linecap="round"/>
<path d="M37 11L37 12" stroke="white" stroke-linecap="round"/>
<path d="M39 11L39 12" stroke="white" stroke-linecap="round"/>
<path d="M40 12L39 13.7321" stroke="white" stroke-linecap="round"/>
<path d="M36 13C36 13.7364 37.2722 14.5 38 14.5C38.7278 14.5 39.5 14.2364 39.5 13.5C39.5 12.7636 38.7278 11 38 11C37.2722 11 36 12.2636 36 13Z" fill="white"/>
<path d="M36.5 12V13" stroke="white" stroke-linecap="round"/>
<circle cx="31" cy="9" r="5" fill="white"/>
<circle cx="33.5" cy="9.5" r="0.5" fill="#1E1E1E"/>
<path d="M32 12C32 11.8687 31.9741 11.7386 31.9239 11.6173C31.8736 11.496 31.8 11.3858 31.7071 11.2929C31.6142 11.2 31.504 11.1264 31.3827 11.0761C31.2614 11.0259 31.1313 11 31 11C30.8687 11 30.7386 11.0259 30.6173 11.0761C30.496 11.1264 30.3858 11.2 30.2929 11.2929C30.2 11.3858 30.1264 11.496 30.0761 11.6173C30.0259 11.7386 30 11.8687 30 12" stroke="#3300FF" stroke-width="0.5" stroke-linecap="round"/>
<circle cx="28.5" cy="9.5" r="0.5" fill="#1E1E1E"/>
<circle cx="31" cy="10" r="0.5" fill="#3300FF"/>
<path d="M32 6.5C32 7.32843 30.2091 8 28 8C25.7909 8 24 7.32843 24 6.5C24 5.67157 25.7909 5 28 5C30.2091 5 32 5.67157 32 6.5Z" fill="#FF0000"/>
<path d="M28 4.5C28 5.32843 27.3284 6 26.5 6C25.6716 6 25 5.32843 25 4.5C25 3.67157 25.6716 3 26.5 3C27.3284 3 28 3.67157 28 4.5Z" fill="#FF0000"/>
<path d="M29 7.5C29 8.32843 28.3284 8.5 27.5 8.5C26.6716 8.5 26 8.32843 26 7.5C26 6.67157 26.6716 6 27.5 6C28.3284 6 29 6.67157 29 7.5Z" fill="#FF0000"/>
<path d="M30 2.5C30 3.32843 29.3284 4 28.5 4C27.6716 4 27 3.32843 27 2.5C27 1.67157 27.6716 1 28.5 1C29.3284 1 30 1.67157 30 2.5Z" fill="#FF0000"/>
<path d="M33 1.5C33 2.32843 32.3284 3 31.5 3C30.6716 3 30 2.32843 30 1.5C30 0.671573 30.6716 0 31.5 0C32.3284 0 33 0.671573 33 1.5Z" fill="#FF0000"/>
<path d="M37 3.5C37 4.32843 36.3284 5 35.5 5C34.6716 5 34 4.32843 34 3.5C34 2.67157 34.6716 2 35.5 2C36.3284 2 37 2.67157 37 3.5Z" fill="#FF0000"/>
<path d="M35 2.5C35 3.32843 34.3284 4 33.5 4C32.6716 4 32 3.32843 32 2.5C32 1.67157 32.6716 1 33.5 1C34.3284 1 35 1.67157 35 2.5Z" fill="#FF0000"/>
<path d="M34 3.5C34 4.32843 32.8807 5 31.5 5C30.1193 5 29 4.32843 29 3.5C29 2.67157 30.1193 2 31.5 2C32.8807 2 34 2.67157 34 3.5Z" fill="#FF0000"/>
<path d="M34 2.5C34 3.32843 32.8807 4 31.5 4C30.1193 4 29 3.32843 29 2.5C29 1.67157 30.1193 1 31.5 1C32.8807 1 34 1.67157 34 2.5Z" fill="#FF0000"/>
<path d="M36 6.5C36 7.32843 34.8807 8 33.5 8C32.1193 8 31 7.32843 31 6.5C31 5.67157 32.1193 5 33.5 5C34.8807 5 36 5.67157 36 6.5Z" fill="#FF0000"/>
<path d="M37 6.5C37 7.32843 36.3284 8 35.5 8C34.6716 8 34 7.32843 34 6.5C34 5.67157 34.6716 5 35.5 5C36.3284 5 37 5.67157 37 6.5Z" fill="#FF0000"/>
<path d="M32 6.5C32 7.32843 31.3284 8 30.5 8C29.6716 8 29 7.32843 29 6.5C29 5.67157 29.6716 5 30.5 5C31.3284 5 32 5.67157 32 6.5Z" fill="#FF0000"/>
<path d="M35 5C35 6.10457 33.2091 7 31 7C28.7909 7 27 6.10457 27 5C27 3.89543 28.7909 3 31 3C33.2091 3 35 3.89543 35 5Z" fill="#FF0000"/>
<path d="M38 4.5C38 5.32843 37.1046 6 36 6C34.8954 6 34 5.32843 34 4.5C34 3.67157 34.8954 3 36 3C37.1046 3 38 3.67157 38 4.5Z" fill="#FF0000"/>
<path d="M33.8717 17.4076C33.8717 20.2904 34.9243 24.9999 31 25C27.0757 25.0001 28.1283 20.2904 28.1283 17.4076C28.1283 14.5248 29.414 15.0348 31 15.0348C32.586 15.0348 33.8717 14.5248 33.8717 17.4076Z" fill="#3300FF"/>
<path d="M12.8717 23.4446C12.8717 25.1742 12 28 9.99998 28C8 28 7.1283 25.1742 7.1283 23.4446C7.1283 21.7149 8.41399 22.0209 9.99998 22.0209C11.586 22.0209 12.8717 21.7149 12.8717 23.4446Z" fill="#FF0000"/>
<path d="M34.2907 25.6979C34.9188 28.9063 36.3966 33.9948 34.7125 34.5644C33.0284 35.1341 32.454 29.7398 31.8259 26.5315C31.1977 23.3231 31.8606 23.7042 32.5413 23.474C33.2219 23.2438 33.6626 22.4896 34.2907 25.6979Z" fill="#3300FF"/>
<path d="M27.7093 25.6984C27.0812 28.9067 25.6034 33.9953 27.2875 34.5649C28.9716 35.1346 29.546 29.7403 30.1741 26.5319C30.8023 23.3236 30.1394 23.7047 29.4587 23.4745C28.7781 23.2443 28.3374 22.4901 27.7093 25.6984Z" fill="#3300FF"/>
<path d="M7.67128 29.0939C7.22007 31.4489 6.11778 35.1698 7.47924 35.6404C8.84069 36.1109 9.21265 32.1374 9.66386 29.7824C10.1151 27.4275 9.58918 27.69 9.03894 27.4999C8.48871 27.3098 8.12248 26.739 7.67128 29.0939Z" fill="#FF0000"/>
<path d="M12.2771 29.1117C12.7283 31.4667 13.8214 35.1909 12.4944 35.6495C11.1674 36.1081 10.7862 32.1378 10.335 29.7828C9.88381 27.4279 10.3984 27.6943 10.9347 27.509C11.471 27.3237 11.8259 26.7568 12.2771 29.1117Z" fill="#FF0000"/>
<path d="M15.7702 23.7471C14.2209 24.1737 11.8771 25.2991 11.1787 23.7012C10.4802 22.1033 13.1987 21.8351 14.7481 21.4085C16.2974 20.9819 16.2521 21.5809 16.5343 22.2267C16.8166 22.8725 17.3195 23.3206 15.7702 23.7471Z" fill="#FF0000"/>
<path d="M37.799 16.6167C36.4164 17.6284 34.5379 19.5987 33.1202 18.4146C31.7024 17.2305 34.3415 15.8953 35.7242 14.8836C37.1068 13.872 37.3266 14.4389 37.8996 14.9175C38.4725 15.396 39.1816 15.605 37.799 16.6167Z" fill="#3300FF"/>
<path d="M24.2011 16.6167C25.5837 17.6284 27.4622 19.5987 28.88 18.4146C30.2977 17.2305 27.6586 15.8953 26.276 14.8836C24.8933 13.872 24.6735 14.4389 24.1005 14.9175C23.5276 15.396 22.8185 15.605 24.2011 16.6167Z" fill="#3300FF"/>
<path d="M4.31684 23.7471C5.86618 24.1737 8.20994 25.2991 8.90838 23.7012C9.60683 22.1033 6.88832 21.8351 5.33898 21.4085C3.78964 20.9819 3.83495 21.5809 3.55269 22.2267C3.27043 22.8725 2.7675 23.3206 4.31684 23.7471Z" fill="#FF0000"/>
<ellipse cx="13.5" cy="35" rx="2.5" ry="1" fill="#3300FF"/>
<ellipse cx="2.5" cy="1" rx="2.5" ry="1" transform="matrix(-1 0 0 1 9 34)" fill="#3300FF"/>
<ellipse cx="2.5" cy="1" rx="2.5" ry="1" transform="matrix(-1 0 0 1 29 33)" fill="#FF0000"/>
<ellipse cx="35.5" cy="34" rx="2.5" ry="1" fill="#FF0000"/>
<ellipse cx="15.5" cy="35" rx="1.5" ry="1" fill="#3300FF"/>
<ellipse cx="1.5" cy="1" rx="1.5" ry="1" transform="matrix(-1 0 0 1 6 34)" fill="#3300FF"/>
<ellipse cx="1.5" cy="1" rx="1.5" ry="1" transform="matrix(-1 0 0 1 26 33)" fill="#FF0000"/>
<ellipse cx="37.5" cy="34" rx="1.5" ry="1" fill="#FF0000"/>
</svg>
