<svg width="64" height="64" viewBox="0 0 64 64" fill="none" xmlns="http://www.w3.org/2000/svg">
<path opacity="0.6" fill-rule="evenodd" clip-rule="evenodd" d="M32 64C49.6731 64 64 49.6731 64 32C64 14.3269 49.6731 0 32 0C14.3269 0 0 14.3269 0 32C0 49.6731 14.3269 64 32 64ZM48 28C50.2091 28 52 29.7909 52 32C52 34.2091 50.2091 36 48 36C45.7909 36 44 34.2091 44 32C44 29.7909 45.7909 28 48 28ZM20 32C20 29.7909 18.2091 28 16 28C13.7909 28 12 29.7909 12 32C12 34.2091 13.7909 36 16 36C18.2091 36 20 34.2091 20 32ZM32 51.8137C28.6016 51.8137 25.3424 50.4637 22.9393 48.0607C22.3536 47.4749 22.3536 46.5251 22.9393 45.9394C23.5251 45.3536 24.4749 45.3536 25.0607 45.9394C26.9011 47.7798 29.3972 48.8137 32 48.8137C34.6028 48.8137 37.0989 47.7798 38.9393 45.9394C39.5251 45.3536 40.4749 45.3536 41.0607 45.9394C41.6464 46.5251 41.6464 47.4749 41.0607 48.0607C38.6576 50.4637 35.3984 51.8137 32 51.8137Z" fill="white"/>
</svg>
