<svg width="32" height="32" viewBox="0 0 32 32" fill="none" xmlns="http://www.w3.org/2000/svg">
<g clip-path="url(#clip0_250_7343)">
<rect width="12.6813" height="12.6813" transform="matrix(0.866025 -0.5 0.866025 0.5 4.9502 11.7791)" fill="#404F51"/>
<path d="M1.77832 8.01549L12.3843 1.79541L15.8285 5.88933L4.97059 11.7818L1.77832 8.01549Z" fill="#6D8489"/>
<path d="M30.4873 11.7716L20.6678 5.70996L16.249 6.1853L26.8431 11.7716H30.4873Z" fill="#677D7F"/>
<rect width="10.1451" height="10.1451" transform="matrix(0.866025 -0.5 0.866025 0.5 7.14648 6.07251)" fill="#3E5A72"/>
<rect width="10.1451" height="10.1451" transform="matrix(0.866025 -0.5 2.20305e-08 1 15.9316 11.145)" fill="#2B3E51"/>
<rect width="10.1451" height="10.1451" transform="matrix(-0.866025 -0.5 -2.20305e-08 1 15.9697 11.145)" fill="#2D4654"/>
<rect width="3.1281" height="12.6813" transform="matrix(0.866025 -0.5 2.20305e-08 1 19.2764 9.2594)" fill="#1E9679"/>
<rect width="3.1281" height="12.6813" transform="matrix(-0.866025 -0.5 -2.20305e-08 1 12.6943 9.2594)" fill="#1E9679"/>
<path d="M10.3252 4.21743L12.7615 2.82373L21.9869 7.69524L19.2392 9.27039L10.3252 4.21743Z" fill="#24BD9C"/>
<path d="M21.6201 4.21743L19.1838 2.82373L9.95842 7.69524L12.7061 9.27039L21.6201 4.21743Z" fill="#24BD9C"/>
<rect width="12.6813" height="12.6813" transform="matrix(0.866025 -0.5 2.20305e-08 1 15.9326 18.1198)" fill="#374347"/>
<rect width="12.6813" height="12.6813" transform="matrix(-0.866025 -0.5 -2.20305e-08 1 15.9326 18.1198)" fill="#495A5E"/>
<path d="M15.9717 18.1538L26.8323 11.7713L32.0003 15.1235L20.9472 21.0934L15.9717 18.1538Z" fill="#6D8489"/>
<path d="M15.9717 18.1451L4.97096 11.782L0.000378609 12.7215L10.7484 18.7831L15.9717 18.1451Z" fill="#677D7F"/>
<path d="M15.2349 6.90457C15.2349 6.90457 14.0174 6.33093 13.3949 5.97155C12.7724 5.61216 12.0947 5.09797 12.0947 4.65677C12.0947 4.21557 12.7724 4.01443 13.3949 4.37382C14.0174 4.73321 15.2349 6.90457 15.2349 6.90457Z" fill="#1F9B7D"/>
<path d="M17.4468 5.30277C17.4468 5.30277 16.2293 4.72913 15.6068 4.36974C14.9843 4.01035 14.3066 3.49616 14.3066 3.05496C14.3066 2.61376 14.9843 2.41263 15.6068 2.77201C16.2293 3.1314 17.4468 5.30277 17.4468 5.30277Z" fill="#24BD9C"/>
<path d="M15.3033 6.93175C15.3033 6.93175 16.4523 6.23383 17.0748 6.59322C17.6973 6.9526 18.3857 7.86247 18.3857 8.30367C18.3857 8.74487 17.6973 8.45542 17.0748 8.09603C16.4523 7.73664 15.3033 6.93175 15.3033 6.93175Z" fill="#1F9B7D"/>
<path d="M17.5494 5.29063C17.5494 5.29063 18.6984 4.59272 19.3209 4.9521C19.9434 5.31149 20.6318 6.22136 20.6318 6.66256C20.6318 7.10376 19.9434 6.8143 19.3209 6.45491C18.6984 6.09553 17.5494 5.29063 17.5494 5.29063Z" fill="#24BD9C"/>
<path d="M14.4883 2.74268L17.3669 5.18391L20.633 6.79663L18.5869 7.97793L15.971 5.4414L12.4422 3.92398L14.4883 2.74268Z" fill="#24BD9C"/>
</g>
<defs>
<clipPath id="clip0_250_7343">
<rect width="32" height="32" fill="white"/>
</clipPath>
</defs>
</svg>
