<svg width="24" height="24" viewBox="0 0 24 24" fill="none" xmlns="http://www.w3.org/2000/svg">
<path fill-rule="evenodd" clip-rule="evenodd" d="M4 0C1.79086 0 0 1.79086 0 4V20C0 22.2091 1.79086 24 4 24H20C22.2091 24 24 22.2091 24 20V4C24 1.79086 22.2091 0 20 0H4ZM6.34261 7.88182C6.57443 8.09659 6.85227 8.20398 7.17614 8.20398C7.5 8.20398 7.77614 8.09659 8.00455 7.88182C8.23636 7.66364 8.35227 7.40284 8.35227 7.09943C8.35227 6.79943 8.23636 6.54205 8.00455 6.32727C7.77614 6.10909 7.5 6 7.17614 6C6.85227 6 6.57443 6.10909 6.34261 6.32727C6.1142 6.54205 6 6.79943 6 7.09943C6 7.40284 6.1142 7.66364 6.34261 7.88182ZM6.08182 9.21648V17.071H8.26023V9.21648H6.08182ZM12.1837 12.5301V17.071H10.0053V9.21648H12.0814V10.6023H12.1734C12.3473 10.1455 12.6388 9.78409 13.0479 9.51818C13.457 9.24887 13.953 9.11421 14.5359 9.11421C15.0814 9.11421 15.557 9.23352 15.9626 9.47216C16.3683 9.7108 16.6837 10.0517 16.9087 10.4949C17.1337 10.9347 17.2462 11.4597 17.2462 12.0699V17.071H15.0678V12.4585C15.0712 11.9778 14.9484 11.6028 14.6996 11.3335C14.4507 11.0608 14.1081 10.9244 13.6717 10.9244C13.3786 10.9244 13.1195 10.9875 12.8945 11.1136C12.6729 11.2398 12.499 11.4239 12.3729 11.6659C12.2501 11.9045 12.1871 12.1926 12.1837 12.5301Z" fill="black"/>
</svg>
