<svg width="24" height="24" viewBox="0 0 24 24" fill="none" xmlns="http://www.w3.org/2000/svg">
<path fill-rule="evenodd" clip-rule="evenodd" d="M0 4C0 1.79086 1.79086 0 4 0H20C22.2091 0 24 1.79086 24 4V20C24 22.2091 22.2091 24 20 24H4C1.79086 24 0 22.2091 0 20V4ZM3.29297 11.8535C3.29297 11.5774 3.51683 11.3535 3.79297 11.3535H5.79297C6.06911 11.3535 6.29297 11.5774 6.29297 11.8535C6.29297 12.1297 6.06911 12.3535 5.79297 12.3535H3.79297C3.51683 12.3535 3.29297 12.1297 3.29297 11.8535ZM18.207 11.3535C17.9309 11.3535 17.707 11.5774 17.707 11.8535C17.707 12.1297 17.9309 12.3535 18.207 12.3535H20.207C20.4832 12.3535 20.707 12.1297 20.707 11.8535C20.707 11.5774 20.4832 11.3535 20.207 11.3535H18.207ZM12 6.64648C11.7239 6.64648 11.5 6.42263 11.5 6.14648V4.14648C11.5 3.87034 11.7239 3.64648 12 3.64648C12.2761 3.64648 12.5 3.87034 12.5 4.14648V6.14648C12.5 6.42263 12.2761 6.64648 12 6.64648ZM18.0604 6.29288C18.2557 6.09762 18.2557 5.78104 18.0604 5.58578C17.8651 5.39052 17.5486 5.39052 17.3533 5.58578L15.9391 6.99999C15.7438 7.19525 15.7438 7.51184 15.9391 7.7071C16.1343 7.90236 16.4509 7.90236 16.6462 7.7071L18.0604 6.29288ZM18.0604 18.1213C18.2557 17.926 18.2557 17.6094 18.0604 17.4141L16.6462 15.9999C16.4509 15.8047 16.1343 15.8047 15.9391 15.9999C15.7438 16.1952 15.7438 16.5118 15.9391 16.707L17.3533 18.1213C17.5486 18.3165 17.8651 18.3165 18.0604 18.1213ZM5.93941 6.29288C5.74415 6.09762 5.74415 5.78104 5.93941 5.58578C6.13468 5.39052 6.45126 5.39052 6.64652 5.58578L8.06074 6.99999C8.256 7.19525 8.256 7.51184 8.06074 7.7071C7.86547 7.90236 7.54889 7.90236 7.35363 7.7071L5.93941 6.29288ZM5.93941 18.1213C5.74415 17.926 5.74415 17.6094 5.93941 17.4141L7.35363 15.9999C7.54889 15.8047 7.86547 15.8047 8.06074 15.9999C8.256 16.1952 8.256 16.5118 8.06074 16.707L6.64652 18.1213C6.45126 18.3165 6.13468 18.3165 5.93941 18.1213ZM15.4864 11.8981C15.4864 13.0087 14.9665 13.9982 14.159 14.6358C14.0504 14.7215 14.0184 14.8114 14.0184 14.8647V15.0176C14.0184 15.727 13.4433 16.3021 12.7339 16.3021H11.2659C10.5565 16.3021 9.98141 15.727 9.98141 15.0176V14.8647C9.98141 14.8114 9.94939 14.7215 9.84079 14.6358C9.0333 13.9982 8.51343 13.0087 8.51343 11.8981C8.51343 9.97261 10.0743 8.41166 11.9999 8.41166C13.9254 8.41166 15.4864 9.97261 15.4864 11.8981ZM10.8072 16.86C10.8072 16.7079 10.9304 16.5847 11.0824 16.5847H12.9174C13.0694 16.5847 13.1926 16.7079 13.1926 16.86C13.1926 17.012 13.0694 17.1352 12.9174 17.1352H11.0824C10.9304 17.1352 10.8072 17.012 10.8072 16.86ZM11.0824 17.3187C10.9304 17.3187 10.8072 17.4419 10.8072 17.594C10.8072 17.746 10.9304 17.8692 11.0824 17.8692H12.9174C13.0694 17.8692 13.1926 17.746 13.1926 17.594C13.1926 17.4419 13.0694 17.3187 12.9174 17.3187H11.0824ZM11.1742 18.3279C11.1742 18.1759 11.2974 18.0527 11.4494 18.0527H12.5504C12.7024 18.0527 12.8256 18.1759 12.8256 18.3279C12.8256 18.48 12.7024 18.6032 12.5504 18.6032H11.4494C11.2974 18.6032 11.1742 18.48 11.1742 18.3279ZM12.7523 9.4375C12.6095 9.3855 12.4515 9.45916 12.3995 9.602C12.3475 9.74485 12.4212 9.9028 12.564 9.95479C13.6985 10.3677 14.2834 11.6221 13.8705 12.7566C13.8185 12.8994 13.8922 13.0574 14.035 13.1094C14.1779 13.1613 14.3358 13.0877 14.3878 12.9448C14.9047 11.5247 14.1725 9.95439 12.7523 9.4375ZM12.2751 9.56879C12.2751 9.7208 12.1519 9.84404 11.9999 9.84404C11.8479 9.84404 11.7246 9.7208 11.7246 9.56879C11.7246 9.41677 11.8479 9.29354 11.9999 9.29354C12.1519 9.29354 12.2751 9.41677 12.2751 9.56879Z" fill="black"/>
</svg>
