<svg width="24" height="24" viewBox="0 0 24 24" fill="none" xmlns="http://www.w3.org/2000/svg">
<path fill-rule="evenodd" clip-rule="evenodd" d="M4 0C1.79077 0 0 1.79089 0 4V20C0 22.2091 1.79077 24 4 24H20C22.2092 24 24 22.2091 24 20V4C24 1.79089 22.2092 0 20 0H4ZM10 3.5H9.79297L9.64648 3.64648L5.64648 7.64648L5.5 7.79285V8V20V20.5H6H18H18.5V20V4V3.5H18H10ZM10.5 4.5H17.5V19.5H6.5V8.5H8C7.72388 8.5 7.5 8.72388 7.5 9C7.5 9.27612 7.72388 9.5 8 9.5H16C16.1665 9.5 16.314 9.4187 16.4048 9.29358C16.4646 9.21118 16.5 9.10974 16.5 9C16.5 8.72388 16.2761 8.5 16 8.5H10.5V8V7.5H16C16.2761 7.5 16.5 7.27612 16.5 7C16.5 6.72388 16.2761 6.5 16 6.5H10.5V4.5ZM9.5 7.5H7.20703L9.5 5.20715V7V7.5ZM8 11.5H16C16.1572 11.5 16.2976 11.4274 16.3892 11.3138C16.4585 11.228 16.5 11.1189 16.5 11C16.5 10.7239 16.2761 10.5 16 10.5H8C7.72388 10.5 7.5 10.7239 7.5 11C7.5 11.2761 7.72388 11.5 8 11.5ZM8 13.5H16C16.1465 13.5 16.2781 13.437 16.3696 13.3367C16.4507 13.2478 16.5 13.1296 16.5 13C16.5 12.7239 16.2761 12.5 16 12.5H8C7.72388 12.5 7.5 12.7239 7.5 13C7.5 13.2761 7.72388 13.5 8 13.5ZM8 15.5H16C16.2761 15.5 16.5 15.2761 16.5 15C16.5 14.7239 16.2761 14.5 16 14.5H8C7.72388 14.5 7.5 14.7239 7.5 15C7.5 15.2761 7.72388 15.5 8 15.5ZM8 17.5H16C16.2761 17.5 16.5 17.2761 16.5 17C16.5 16.7239 16.2761 16.5 16 16.5H8C7.72388 16.5 7.5 16.7239 7.5 17C7.5 17.2761 7.72388 17.5 8 17.5Z" fill="black"/>
</svg>
