<svg width="48" height="48" viewBox="0 0 48 48" fill="none" xmlns="http://www.w3.org/2000/svg">
<g opacity="0.67">
<g clip-path="url(#clip0_249_207)">
<path fill-rule="evenodd" clip-rule="evenodd" d="M24.06 0H0V47.954C0 47.954 8 48 16.41 47.954C17.61 48.1648 18.06 47.442 18.06 46.8095C18.06 46.2372 18.03 44.3398 18.03 42.3219C12 43.4363 10.44 40.8461 9.96 39.4908C9.69 38.7981 8.52 36.6597 7.5 36.0875C6.66 35.6357 5.46 34.5213 7.47 34.4912C9.36 34.4611 10.71 36.2381 11.16 36.9609C13.32 40.6052 16.77 39.5812 18.15 38.9487C18.36 37.3826 18.99 36.3284 19.68 35.7261C14.34 35.1237 8.76 33.0456 8.76 23.8294C8.76 21.2092 9.69 19.0407 11.22 17.3541C10.98 16.7517 10.14 14.282 11.46 10.9691C11.46 10.9691 13.47 10.3366 18.06 13.4387C19.98 12.8966 22.02 12.6255 24.06 12.6255C26.1 12.6255 28.14 12.8966 30.06 13.4387C34.65 10.3065 36.66 10.9691 36.66 10.9691C37.98 14.282 37.14 16.7517 36.9 17.3541C38.43 19.0407 39.36 21.1791 39.36 23.8294C39.36 33.0757 33.75 35.1237 28.41 35.7261C29.28 36.479 30.03 37.9247 30.03 40.1835C30.03 43.4062 30 45.9963 30 46.8095C30 47.442 30.45 48.1949 31.65 47.954C39.36 47.954 48 47.954 48 47.954V0H24.06Z" fill="white"/>
</g>
</g>
<defs>
<clipPath id="clip0_249_207">
<rect width="48" height="48" rx="8" fill="white"/>
</clipPath>
</defs>
</svg>
