<svg width="36" height="48" viewBox="0 0 36 48" fill="none" xmlns="http://www.w3.org/2000/svg">
<path opacity="0.67" fill-rule="evenodd" clip-rule="evenodd" d="M13 13V12V6V1L1 13H13ZM15 7L30 7C30.5523 7 31 6.55229 31 6C31 5.44772 30.5523 5 30 5L15 5V0H36V48H0V15H13C14.1046 15 15 14.1046 15 13L30 13C30.5523 13 31 12.5523 31 12C31 11.4477 30.5523 11 30 11L15 11V7ZM6 35C5.44772 35 5 35.4477 5 36C5 36.5523 5.44772 37 6 37H30C30.5523 37 31 36.5523 31 36C31 35.4477 30.5523 35 30 35H6ZM5 42C5 41.4477 5.44772 41 6 41H30C30.5523 41 31 41.4477 31 42C31 42.5523 30.5523 43 30 43H6C5.44772 43 5 42.5523 5 42ZM6 29C5.44772 29 5 29.4477 5 30C5 30.5523 5.44772 31 6 31H30C30.5523 31 31 30.5523 31 30C31 29.4477 30.5523 29 30 29H6ZM5 24C5 23.4477 5.44772 23 6 23H30C30.5523 23 31 23.4477 31 24C31 24.5523 30.5523 25 30 25H6C5.44772 25 5 24.5523 5 24ZM6 17C5.44772 17 5 17.4477 5 18C5 18.5523 5.44772 19 6 19H30C30.5523 19 31 18.5523 31 18C31 17.4477 30.5523 17 30 17H6Z" fill="white"/>
</svg>
