<svg width="39" height="36" viewBox="0 0 39 36" fill="none" xmlns="http://www.w3.org/2000/svg">
<path d="M36.7991 16.6167C35.4165 17.6284 33.538 19.5987 32.1203 18.4146C30.7026 17.2305 33.3417 15.8953 34.7243 14.8836C36.1069 13.872 36.3268 14.4389 36.8997 14.9175C37.4727 15.396 38.1818 15.605 36.7991 16.6167Z" fill="#3300FF"/>
<path d="M23.2012 16.6167C24.5839 17.6284 26.4624 19.5987 27.8801 18.4146C29.2978 17.2305 26.6587 15.8953 25.2761 14.8836C23.8935 13.872 23.6736 14.4389 23.1007 14.9175C22.5277 15.396 21.8186 15.605 23.2012 16.6167Z" fill="#3300FF"/>
<path d="M11.8718 23.4446C11.8718 25.1742 11.0001 28 9.0001 28C7.00012 28 6.12842 25.1742 6.12842 23.4446C6.12842 21.7149 7.41412 22.0209 9.0001 22.0209C10.5861 22.0209 11.8718 21.7149 11.8718 23.4446Z" fill="#FF0000"/>
<path d="M14.7703 23.7471C13.221 24.1737 10.8772 25.2991 10.1788 23.7012C9.48033 22.1033 12.1988 21.8351 13.7482 21.4085C15.2975 20.9819 15.2522 21.5809 15.5345 22.2267C15.8167 22.8725 16.3197 23.3206 14.7703 23.7471Z" fill="#FF0000"/>
<path d="M3.31696 23.7471C4.8663 24.1737 7.21006 25.2991 7.9085 23.7012C8.60695 22.1033 5.88844 21.8351 4.3391 21.4085C2.78976 20.9819 2.83507 21.5809 2.55281 22.2267C2.27056 22.8725 1.76762 23.3206 3.31696 23.7471Z" fill="#FF0000"/>
<circle cx="9.00012" cy="18" r="0.5" fill="#FF0000"/>
<circle cx="9.00012" cy="17" r="5" fill="white"/>
<circle cx="9" cy="18" r="0.5" fill="#FF0000"/>
<circle cx="11.5001" cy="17.5" r="0.5" fill="#1E1E1E"/>
<path d="M8.00012 19C8.00012 19.1313 8.02599 19.2614 8.07624 19.3827C8.1265 19.504 8.20016 19.6142 8.29302 19.7071C8.38587 19.8 8.49611 19.8736 8.61744 19.9239C8.73876 19.9741 8.8688 20 9.00012 20C9.13144 20 9.26148 19.9741 9.38281 19.9239C9.50413 19.8736 9.61437 19.8 9.70723 19.7071C9.80009 19.6142 9.87375 19.504 9.924 19.3827C9.97426 19.2614 10.0001 19.1313 10.0001 19" stroke="#FF0000" stroke-width="0.5" stroke-linecap="round"/>
<circle cx="6.50012" cy="17.5" r="0.5" fill="#1E1E1E"/>
<path d="M10.0001 14.5C10.0001 15.3284 8.20926 16 6.00012 16C3.79098 16 2.00012 15.3284 2.00012 14.5C2.00012 13.6716 3.79098 13 6.00012 13C8.20926 13 10.0001 13.6716 10.0001 14.5Z" fill="#3300FF"/>
<path d="M6.00012 12.5C6.00012 13.3284 5.32855 14 4.50012 14C3.67169 14 3.00012 13.3284 3.00012 12.5C3.00012 11.6716 3.67169 11 4.50012 11C5.32855 11 6.00012 11.6716 6.00012 12.5Z" fill="#3300FF"/>
<path d="M7.00012 15.5C7.00012 16.3284 6.32855 16.5 5.50012 16.5C4.67169 16.5 4.00012 16.3284 4.00012 15.5C4.00012 14.6716 4.67169 14 5.50012 14C6.32855 14 7.00012 14.6716 7.00012 15.5Z" fill="#3300FF"/>
<path d="M8.00012 10.5C8.00012 11.3284 7.32855 12 6.50012 12C5.67169 12 5.00012 11.3284 5.00012 10.5C5.00012 9.67157 5.67169 9 6.50012 9C7.32855 9 8.00012 9.67157 8.00012 10.5Z" fill="#3300FF"/>
<path d="M11.0001 9.5C11.0001 10.3284 10.3285 11 9.50012 11C8.67169 11 8.00012 10.3284 8.00012 9.5C8.00012 8.67157 8.67169 8 9.50012 8C10.3285 8 11.0001 8.67157 11.0001 9.5Z" fill="#3300FF"/>
<path d="M15.0001 11.5C15.0001 12.3284 14.3285 13 13.5001 13C12.6717 13 12.0001 12.3284 12.0001 11.5C12.0001 10.6716 12.6717 10 13.5001 10C14.3285 10 15.0001 10.6716 15.0001 11.5Z" fill="#3300FF"/>
<path d="M13.0001 10.5C13.0001 11.3284 12.3285 12 11.5001 12C10.6717 12 10.0001 11.3284 10.0001 10.5C10.0001 9.67157 10.6717 9 11.5001 9C12.3285 9 13.0001 9.67157 13.0001 10.5Z" fill="#3300FF"/>
<path d="M12.0001 11.5C12.0001 12.3284 10.8808 13 9.50012 13C8.11941 13 7.00012 12.3284 7.00012 11.5C7.00012 10.6716 8.11941 10 9.50012 10C10.8808 10 12.0001 10.6716 12.0001 11.5Z" fill="#3300FF"/>
<path d="M12.0001 10.5C12.0001 11.3284 10.8808 12 9.50012 12C8.11941 12 7.00012 11.3284 7.00012 10.5C7.00012 9.67157 8.11941 9 9.50012 9C10.8808 9 12.0001 9.67157 12.0001 10.5Z" fill="#3300FF"/>
<path d="M14.0001 14.5C14.0001 15.3284 12.8808 16 11.5001 16C10.1194 16 9.00012 15.3284 9.00012 14.5C9.00012 13.6716 10.1194 13 11.5001 13C12.8808 13 14.0001 13.6716 14.0001 14.5Z" fill="#3300FF"/>
<path d="M15.0001 14.5C15.0001 15.3284 14.3285 16 13.5001 16C12.6717 16 12.0001 15.3284 12.0001 14.5C12.0001 13.6716 12.6717 13 13.5001 13C14.3285 13 15.0001 13.6716 15.0001 14.5Z" fill="#3300FF"/>
<path d="M10.0001 14.5C10.0001 15.3284 9.32855 16 8.50012 16C7.67169 16 7.00012 15.3284 7.00012 14.5C7.00012 13.6716 7.67169 13 8.50012 13C9.32855 13 10.0001 13.6716 10.0001 14.5Z" fill="#3300FF"/>
<path d="M13.0001 13C13.0001 14.1046 11.2093 15 9.00012 15C6.79098 15 5.00012 14.1046 5.00012 13C5.00012 11.8954 6.79098 11 9.00012 11C11.2093 11 13.0001 11.8954 13.0001 13Z" fill="#3300FF"/>
<path d="M16.0001 12.5C16.0001 13.3284 15.1047 14 14.0001 14C12.8956 14 12.0001 13.3284 12.0001 12.5C12.0001 11.6716 12.8956 11 14.0001 11C15.1047 11 16.0001 11.6716 16.0001 12.5Z" fill="#3300FF"/>
<path d="M3 26.5L3 23.5" stroke="white" stroke-linecap="round"/>
<path d="M1 24.5L1 23.5" stroke="white" stroke-linecap="round"/>
<path d="M2 24.5L2 23.5" stroke="white" stroke-linecap="round"/>
<path d="M4 23.5L3 21.7679" stroke="white" stroke-linecap="round"/>
<path d="M-1.74846e-07 22.5C-2.39222e-07 21.7636 1.27218 21 2 21C2.72782 21 3.5 21.2636 3.5 22C3.5 22.7364 2.72782 24.5 2 24.5C1.27218 24.5 -1.10469e-07 23.2364 -1.74846e-07 22.5Z" fill="white"/>
<path d="M0.5 23.5L0.5 22.5" stroke="white" stroke-linecap="round"/>
<path d="M15 26V23" stroke="white" stroke-linecap="round"/>
<path d="M17.0001 24.5L17.0001 23.5" stroke="white" stroke-linecap="round"/>
<path d="M16.0001 24.5L16.0001 23.5" stroke="white" stroke-linecap="round"/>
<path d="M14.0001 23.5L15.0001 21.7679" stroke="white" stroke-linecap="round"/>
<path d="M18.0001 22.5C18.0001 21.7636 16.7279 21 16.0001 21C15.2723 21 14.5001 21.2636 14.5001 22C14.5001 22.7364 15.2723 24.5 16.0001 24.5C16.7279 24.5 18.0001 23.2364 18.0001 22.5Z" fill="white"/>
<path d="M17.5001 23.5V22.5" stroke="white" stroke-linecap="round"/>
<path d="M36.0001 19.5L36.0001 16.5" stroke="white" stroke-linecap="round"/>
<path d="M38.0001 17.5L38.0001 16.5" stroke="white" stroke-linecap="round"/>
<path d="M37.0001 17.5L37.0001 16.5" stroke="white" stroke-linecap="round"/>
<path d="M35.0001 16.5L36.0001 14.7679" stroke="white" stroke-linecap="round"/>
<path d="M39.0001 15.5C39.0001 14.7636 37.7279 14 37.0001 14C36.2723 14 35.5001 14.2636 35.5001 15C35.5001 15.7364 36.2723 17.5 37.0001 17.5C37.7279 17.5 39.0001 16.2364 39.0001 15.5Z" fill="white"/>
<path d="M38.5001 16.5L38.5001 15.5" stroke="white" stroke-linecap="round"/>
<circle cx="30.0001" cy="9" r="5" fill="white"/>
<circle cx="32.5001" cy="9.5" r="0.5" fill="#1E1E1E"/>
<path d="M29.0001 11C29.0001 11.1313 29.026 11.2614 29.0762 11.3827C29.1265 11.504 29.2002 11.6142 29.293 11.7071C29.3859 11.8 29.4961 11.8736 29.6174 11.9239C29.7388 11.9741 29.8688 12 30.0001 12C30.1314 12 30.2615 11.9741 30.3828 11.9239C30.5041 11.8736 30.6144 11.8 30.7072 11.7071C30.8001 11.6142 30.8737 11.504 30.924 11.3827C30.9743 11.2614 31.0001 11.1313 31.0001 11" stroke="#3300FF" stroke-width="0.5" stroke-linecap="round"/>
<circle cx="27.5001" cy="9.5" r="0.5" fill="#1E1E1E"/>
<path d="M24.0001 19.5L24.0001 16.5" stroke="white" stroke-linecap="round"/>
<path d="M22.0001 17.5L22.0001 16.5" stroke="white" stroke-linecap="round"/>
<path d="M23.0001 17.5L23.0001 16.5" stroke="white" stroke-linecap="round"/>
<path d="M25.0001 16.5L24.0001 14.7679" stroke="white" stroke-linecap="round"/>
<path d="M21.0001 15.5C21.0001 14.7636 22.2723 14 23.0001 14C23.7279 14 24.5001 14.2636 24.5001 15C24.5001 15.7364 23.7279 17.5 23.0001 17.5C22.2723 17.5 21.0001 16.2364 21.0001 15.5Z" fill="white"/>
<path d="M21.5001 16.5L21.5001 15.5" stroke="white" stroke-linecap="round"/>
<circle cx="30.0001" cy="10" r="0.5" fill="#3300FF"/>
<path d="M31.0001 6.5C31.0001 7.32843 29.2093 8 27.0001 8C24.791 8 23.0001 7.32843 23.0001 6.5C23.0001 5.67157 24.791 5 27.0001 5C29.2093 5 31.0001 5.67157 31.0001 6.5Z" fill="#FF0000"/>
<path d="M27.0001 4.5C27.0001 5.32843 26.3285 6 25.5001 6C24.6717 6 24.0001 5.32843 24.0001 4.5C24.0001 3.67157 24.6717 3 25.5001 3C26.3285 3 27.0001 3.67157 27.0001 4.5Z" fill="#FF0000"/>
<path d="M28.0001 7.5C28.0001 8.32843 27.3285 8.5 26.5001 8.5C25.6717 8.5 25.0001 8.32843 25.0001 7.5C25.0001 6.67157 25.6717 6 26.5001 6C27.3285 6 28.0001 6.67157 28.0001 7.5Z" fill="#FF0000"/>
<path d="M29.0001 2.5C29.0001 3.32843 28.3285 4 27.5001 4C26.6717 4 26.0001 3.32843 26.0001 2.5C26.0001 1.67157 26.6717 1 27.5001 1C28.3285 1 29.0001 1.67157 29.0001 2.5Z" fill="#FF0000"/>
<path d="M32.0001 1.5C32.0001 2.32843 31.3285 3 30.5001 3C29.6717 3 29.0001 2.32843 29.0001 1.5C29.0001 0.671573 29.6717 0 30.5001 0C31.3285 0 32.0001 0.671573 32.0001 1.5Z" fill="#FF0000"/>
<path d="M36.0001 3.5C36.0001 4.32843 35.3285 5 34.5001 5C33.6717 5 33.0001 4.32843 33.0001 3.5C33.0001 2.67157 33.6717 2 34.5001 2C35.3285 2 36.0001 2.67157 36.0001 3.5Z" fill="#FF0000"/>
<path d="M34.0001 2.5C34.0001 3.32843 33.3285 4 32.5001 4C31.6717 4 31.0001 3.32843 31.0001 2.5C31.0001 1.67157 31.6717 1 32.5001 1C33.3285 1 34.0001 1.67157 34.0001 2.5Z" fill="#FF0000"/>
<path d="M33.0001 3.5C33.0001 4.32843 31.8808 5 30.5001 5C29.1194 5 28.0001 4.32843 28.0001 3.5C28.0001 2.67157 29.1194 2 30.5001 2C31.8808 2 33.0001 2.67157 33.0001 3.5Z" fill="#FF0000"/>
<path d="M33.0001 2.5C33.0001 3.32843 31.8808 4 30.5001 4C29.1194 4 28.0001 3.32843 28.0001 2.5C28.0001 1.67157 29.1194 1 30.5001 1C31.8808 1 33.0001 1.67157 33.0001 2.5Z" fill="#FF0000"/>
<path d="M35.0001 6.5C35.0001 7.32843 33.8808 8 32.5001 8C31.1194 8 30.0001 7.32843 30.0001 6.5C30.0001 5.67157 31.1194 5 32.5001 5C33.8808 5 35.0001 5.67157 35.0001 6.5Z" fill="#FF0000"/>
<path d="M36.0001 6.5C36.0001 7.32843 35.3285 8 34.5001 8C33.6717 8 33.0001 7.32843 33.0001 6.5C33.0001 5.67157 33.6717 5 34.5001 5C35.3285 5 36.0001 5.67157 36.0001 6.5Z" fill="#FF0000"/>
<path d="M31.0001 6.5C31.0001 7.32843 30.3285 8 29.5001 8C28.6717 8 28.0001 7.32843 28.0001 6.5C28.0001 5.67157 28.6717 5 29.5001 5C30.3285 5 31.0001 5.67157 31.0001 6.5Z" fill="#FF0000"/>
<path d="M34.0001 5C34.0001 6.10457 32.2093 7 30.0001 7C27.791 7 26.0001 6.10457 26.0001 5C26.0001 3.89543 27.791 3 30.0001 3C32.2093 3 34.0001 3.89543 34.0001 5Z" fill="#FF0000"/>
<path d="M37.0001 4.5C37.0001 5.32843 36.1047 6 35.0001 6C33.8956 6 33.0001 5.32843 33.0001 4.5C33.0001 3.67157 33.8956 3 35.0001 3C36.1047 3 37.0001 3.67157 37.0001 4.5Z" fill="#FF0000"/>
<path d="M32.8718 17.4076C32.8718 20.2904 33.9244 24.9999 30.0001 25C26.0759 25.0001 27.1284 20.2904 27.1284 17.4076C27.1284 14.5248 28.4141 15.0348 30.0001 15.0348C31.5861 15.0348 32.8718 14.5248 32.8718 17.4076Z" fill="#3300FF"/>
<path d="M33.2908 25.6979C33.9189 28.9063 35.3967 33.9948 33.7126 34.5644C32.0285 35.1341 31.4541 29.7398 30.826 26.5315C30.1979 23.3231 30.8608 23.7042 31.5414 23.474C32.2221 23.2438 32.6627 22.4896 33.2908 25.6979Z" fill="#3300FF"/>
<path d="M26.7094 25.6984C26.0813 28.9067 24.6035 33.9953 26.2876 34.5649C27.9718 35.1346 28.5462 29.7403 29.1743 26.5319C29.8024 23.3236 29.1395 23.7047 28.4588 23.4745C27.7782 23.2443 27.3375 22.4901 26.7094 25.6984Z" fill="#3300FF"/>
<path d="M6.6714 29.0939C6.22019 31.4489 5.11791 35.1698 6.47936 35.6404C7.84082 36.1109 8.21278 32.1374 8.66398 29.7824C9.11519 27.4275 8.5893 27.69 8.03906 27.4999C7.48883 27.3098 7.1226 26.739 6.6714 29.0939Z" fill="#FF0000"/>
<path d="M11.2772 29.1117C11.7284 31.4667 12.8215 35.1909 11.4945 35.6495C10.1676 36.1081 9.78634 32.1378 9.33514 29.7828C8.88393 27.4279 9.39852 27.6943 9.93481 27.509C10.4711 27.3237 10.826 26.7568 11.2772 29.1117Z" fill="#FF0000"/>
<ellipse cx="12.5001" cy="35" rx="2.5" ry="1" fill="#3300FF"/>
<ellipse cx="2.5" cy="1" rx="2.5" ry="1" transform="matrix(-1 0 0 1 8.00012 34)" fill="#3300FF"/>
<ellipse cx="2.5" cy="1" rx="2.5" ry="1" transform="matrix(-1 0 0 1 28.0001 33)" fill="#FF0000"/>
<ellipse cx="34.5001" cy="34" rx="2.5" ry="1" fill="#FF0000"/>
<ellipse cx="14.5001" cy="35" rx="1.5" ry="1" fill="#3300FF"/>
<ellipse cx="1.5" cy="1" rx="1.5" ry="1" transform="matrix(-1 0 0 1 5.00012 34)" fill="#3300FF"/>
<ellipse cx="1.5" cy="1" rx="1.5" ry="1" transform="matrix(-1 0 0 1 25.0001 33)" fill="#FF0000"/>
<ellipse cx="36.5001" cy="34" rx="1.5" ry="1" fill="#FF0000"/>
</svg>
