<svg width="10" height="14" viewBox="0 0 10 14" fill="none" xmlns="http://www.w3.org/2000/svg">
<path d="M0.646447 9.64645C0.451184 9.84171 0.451184 10.1583 0.646447 10.3536L3.82843 13.5355C4.02369 13.7308 4.34027 13.7308 4.53553 13.5355C4.7308 13.3403 4.7308 13.0237 4.53553 12.8284L1.70711 10L4.53553 7.17157C4.7308 6.97631 4.7308 6.65973 4.53553 6.46447C4.34027 6.2692 4.02369 6.2692 3.82843 6.46447L0.646447 9.64645ZM9 10V10.5H9.5V10H9ZM1 10.5H9V9.5H1V10.5ZM9.5 10V0H8.5V10H9.5Z" fill="white"/>
</svg>
