<svg width="64" height="64" viewBox="0 0 64 64" fill="none" xmlns="http://www.w3.org/2000/svg">
<path opacity="0.6" fill-rule="evenodd" clip-rule="evenodd" d="M32 64C49.6731 64 64 49.6731 64 32C64 14.3269 49.6731 0 32 0C14.3269 0 0 14.3269 0 32C0 49.6731 14.3269 64 32 64ZM48 36C50.2091 36 52 34.2091 52 32C52 29.7909 50.2091 28 48 28C45.7909 28 44 29.7909 44 32C44 34.2091 45.7909 36 48 36ZM20 32C20 34.2091 18.2091 36 16 36C13.7909 36 12 34.2091 12 32C12 29.7909 13.7909 28 16 28C18.2091 28 20 29.7909 20 32ZM32 46.5C28.7388 46.5 25.5467 47.4124 23.134 49.1184C22.4576 49.5967 22.297 50.5328 22.7753 51.2092C23.2535 51.8856 24.1896 52.0462 24.866 51.5679C26.6968 50.2733 29.26 49.5 32 49.5C34.74 49.5 37.3032 50.2733 39.134 51.5679C39.8104 52.0462 40.7465 51.8856 41.2247 51.2092C41.703 50.5328 41.5424 49.5967 40.866 49.1184C38.4533 47.4124 35.2612 46.5 32 46.5Z" fill="white"/>
</svg>
