<svg width="48" height="48" viewBox="0 0 48 48" fill="none" xmlns="http://www.w3.org/2000/svg">
<path opacity="0.67" fill-rule="evenodd" clip-rule="evenodd" d="M15.1716 24L0.135486 8.96391C0.0471145 9.29437 0 9.64168 0 10V38C0 38.3583 0.0471143 38.7056 0.135486 39.0361L15.1716 24ZM18 26.8284L2.96391 41.8645C3.29437 41.9529 3.64168 42 4 42H44C44.3583 42 44.7056 41.9529 45.0361 41.8645L30 26.8284L28.2426 28.5858C25.8995 30.9289 22.1005 30.9289 19.7574 28.5858L18 26.8284ZM32.8284 24L47.8645 39.0361C47.9529 38.7056 48 38.3583 48 38V10C48 9.64168 47.9529 9.29437 47.8645 8.96391L32.8284 24ZM22.5858 25.7574L2.96391 6.13549C3.29437 6.04711 3.64168 6 4 6H44C44.3583 6 44.7056 6.04711 45.0361 6.13549L25.4142 25.7574C24.6332 26.5384 23.3668 26.5384 22.5858 25.7574Z" fill="white"/>
</svg>
