<svg width="48" height="48" viewBox="0 0 48 48" fill="none" xmlns="http://www.w3.org/2000/svg">
<g opacity="0.67">
<g clip-path="url(#clip0_249_178)">
<path fill-rule="evenodd" clip-rule="evenodd" d="M4 0C1.79086 0 0 1.79086 0 4V44C0 46.2091 1.79086 48 4 48H44C46.2091 48 48 46.2091 48 44V4C48 1.79086 46.2091 0 44 0H4ZM12.6852 15.7636C13.1489 16.1932 13.7045 16.408 14.3523 16.408C15 16.408 15.5523 16.1932 16.0091 15.7636C16.4727 15.3273 16.7045 14.8057 16.7045 14.1989C16.7045 13.5989 16.4727 13.0841 16.0091 12.6545C15.5523 12.2182 15 12 14.3523 12C13.7045 12 13.1489 12.2182 12.6852 12.6545C12.2284 13.0841 12 13.5989 12 14.1989C12 14.8057 12.2284 15.3273 12.6852 15.7636ZM12.1636 18.433V34.1421H16.5205V18.433H12.1636ZM24.3673 25.0602V34.1421H20.0105V18.433H24.1628V21.2045H24.3469C24.6946 20.2909 25.2776 19.5682 26.0957 19.0364C26.9139 18.4977 27.906 18.2284 29.0719 18.2284C30.1628 18.2284 31.1139 18.467 31.9253 18.9443C32.7366 19.4216 33.3673 20.1034 33.8173 20.9898C34.2673 21.8693 34.4923 22.9193 34.4923 24.1398V34.1421H30.1355V24.917C30.1423 23.9557 29.8969 23.2057 29.3991 22.667C28.9014 22.1216 28.2162 21.8489 27.3435 21.8489C26.7571 21.8489 26.2389 21.975 25.7889 22.2273C25.3457 22.4795 24.998 22.8477 24.7457 23.3318C24.5003 23.8091 24.3741 24.3852 24.3673 25.0602Z" fill="white"/>
</g>
</g>
<defs>
<clipPath id="clip0_249_178">
<rect width="48" height="48" rx="8" fill="white"/>
</clipPath>
</defs>
</svg>
