<svg width="24" height="23" viewBox="0 0 24 23" fill="none" xmlns="http://www.w3.org/2000/svg">
<g clip-path="url(#clip0_125_7)">
<path d="M23.8828 11.9379C23.618 12.6435 22.9621 13.0995 22.2109 13.0995H21.5997V21.8991C21.5997 22.3406 21.2414 22.699 20.7998 22.699H16V17.0993C16 14.8938 14.2057 13.0995 12.0002 13.0995C9.79467 13.0995 8.00035 14.8938 8.00035 17.0993V22.699H3.20056C2.75898 22.699 2.4006 22.3406 2.4006 21.8991V13.0995H1.78862C1.03746 13.0995 0.381488 12.6443 0.116699 11.9387C-0.148089 11.2331 0.0463029 10.4572 0.612677 9.96279L9.95546 1.11519C11.1026 0.0296373 12.8985 0.0296373 14.0449 1.11519L23.4101 9.98359C23.9524 10.4564 24.1476 11.2323 23.8828 11.9379Z" fill="white" fill-opacity="0.8"/>
</g>
<defs>
<clipPath id="clip0_125_7">
<rect width="24" height="23" fill="white"/>
</clipPath>
</defs>
</svg>
