<svg width="46" height="47" viewBox="0 0 46 47" fill="none" xmlns="http://www.w3.org/2000/svg">
<g clip-path="url(#clip0_11_3)">
<path d="M23 0.328125C10.3093 0.328125 0 10.6374 0 23.3281C0 36.0188 10.3093 46.3281 23 46.3281C35.6907 46.3281 46 36.0188 46 23.3281C46 10.6374 35.6907 0.328125 23 0.328125ZM23 2.32812C34.6098 2.32812 44 11.7183 44 23.3281C44 34.9379 34.6098 44.3281 23 44.3281C11.3902 44.3281 2 34.9379 2 23.3281C2 11.7183 11.3902 2.32812 23 2.32812ZM14 10.3281C12.355 10.3281 11 11.6831 11 13.3281C11 14.9731 12.355 16.3281 14 16.3281C15.645 16.3281 17 14.9731 17 13.3281C17 11.6831 15.645 10.3281 14 10.3281ZM14 12.3281C14.5641 12.3281 15 12.764 15 13.3281C15 13.8923 14.5641 14.3281 14 14.3281C13.4359 14.3281 13 13.8923 13 13.3281C13 12.764 13.4359 12.3281 14 12.3281ZM12 17.3281C11.7348 17.3282 11.4805 17.4335 11.2929 17.621C11.1054 17.8086 11 18.0629 11 18.3281V33.3281C11 33.5933 11.1054 33.8477 11.2929 34.0352C11.4805 34.2227 11.7348 34.3281 12 34.3281H16C16.2652 34.3281 16.5195 34.2227 16.7071 34.0352C16.8946 33.8477 17 33.5933 17 33.3281V18.3281C17 18.0629 16.8946 17.8086 16.7071 17.621C16.5195 17.4335 16.2652 17.3282 16 17.3281H12ZM20 17.3281C19.7348 17.3282 19.4805 17.4335 19.2929 17.621C19.1054 17.8086 19 18.0629 19 18.3281V33.3281C19 33.5933 19.1054 33.8477 19.2929 34.0352C19.4805 34.2227 19.7348 34.3281 20 34.3281H24C24.2652 34.3281 24.5195 34.2227 24.7071 34.0352C24.8946 33.8477 25 33.5933 25 33.3281V25.8281C25 24.4486 26.1205 23.3281 27.5 23.3281C28.8795 23.3281 30 24.4486 30 25.8281V28.3281V33.3281C30 33.5933 30.1054 33.8477 30.2929 34.0352C30.4805 34.2227 30.7348 34.3281 31 34.3281H35C35.2652 34.3281 35.5195 34.2227 35.7071 34.0352C35.8946 33.8477 36 33.5933 36 33.3281V24.8281C36 20.6977 32.6304 17.3281 28.5 17.3281C27.2135 17.3281 26.0597 17.7443 25 18.3184C24.9974 18.0548 24.8909 17.803 24.7036 17.6176C24.5164 17.4322 24.2635 17.3281 24 17.3281H20ZM13 19.3281H15V32.3281H13V19.3281ZM21 19.3281H23V20.1445C23 20.3407 23.0577 20.5325 23.1659 20.6961C23.2741 20.8596 23.428 20.9878 23.6084 21.0646C23.7889 21.1414 23.988 21.1635 24.1809 21.128C24.3738 21.0926 24.552 21.0012 24.6934 20.8652C25.6842 19.9134 27.0167 19.3281 28.5 19.3281C31.5496 19.3281 34 21.7785 34 24.8281V32.3281H32V28.3281V25.8281C32 23.3577 29.9705 21.3281 27.5 21.3281C25.0295 21.3281 23 23.3577 23 25.8281V32.3281H21V19.3281Z" fill="white"/>
</g>
<defs>
<clipPath id="clip0_11_3">
<rect width="46" height="46" fill="white" transform="translate(0 0.328125)"/>
</clipPath>
</defs>
</svg>
