<svg width="46" height="47" viewBox="0 0 46 47" fill="none" xmlns="http://www.w3.org/2000/svg">
<g clip-path="url(#clip0_11_22)">
<mask id="path-1-inside-1_11_22" fill="white">
<path d="M23 0.328125C10.3113 0.328125 0 10.6395 0 23.3281C0 36.0168 10.3113 46.3281 23 46.3281C35.6887 46.3281 46 36.0168 46 23.3281C46 10.6395 35.6887 0.328125 23 0.328125ZM23 2.32812C34.6073 2.32812 44 11.7208 44 23.3281C44 23.3995 43.9948 23.4698 43.9941 23.541C43.3545 23.482 42.6155 23.4259 41.6758 23.3926C40.3471 23.3455 38.6723 23.3591 36.7734 23.4531C36.8439 22.9628 36.8932 22.4655 36.8945 21.9551C36.9914 20.0825 36.3625 18.3306 35.3398 16.7832C35.5869 15.9295 35.8767 14.8433 35.9492 13.6113C36.0318 12.2071 35.9106 10.6499 34.7832 9.59766L34.4941 9.32812H34.0996C31.4165 9.32812 29.58 10.4513 28.457 11.3418C26.8355 10.7141 25.0122 10.3281 23 10.3281C20.9764 10.3281 19.1355 10.7195 17.4473 11.3457C16.3249 10.4548 14.4868 9.32812 11.8008 9.32812H11.4082L11.1191 9.5957C10.021 10.6154 9.91978 12.1299 9.98828 13.5273C10.0487 14.7596 10.3217 15.8803 10.5645 16.7754C9.52449 18.353 8.90039 20.1501 8.90039 21.9277C8.90039 22.4394 8.94797 22.9382 9.01758 23.4297C7.21182 23.3459 5.6021 23.3298 4.32422 23.375C3.38451 23.4082 2.64544 23.4638 2.00586 23.5234C2.00526 23.4581 2 23.3936 2 23.3281C2 11.7208 11.3927 2.32812 23 2.32812ZM12.3965 11.459C14.4141 11.6502 15.932 12.5511 16.6348 13.1758L17.1035 13.5898L17.6816 13.3535C19.2631 12.7023 21.027 12.3281 23 12.3281C24.973 12.3281 26.7374 12.7042 28.1992 13.3438L28.7852 13.6016L29.2637 13.1758C29.9667 12.5509 31.4872 11.6497 33.5059 11.459C33.7743 11.904 34.0075 12.5368 33.9512 13.4941C33.8838 14.6399 33.5773 15.8878 33.3457 16.6289L33.1953 17.1113L33.4941 17.5195C34.4836 18.8688 34.9881 20.3291 34.9023 21.873L34.9004 21.9004V21.9277C34.9004 24.4232 34.0018 26.4205 32.0879 27.9004C30.174 29.3803 27.1527 30.3281 22.9004 30.3281C18.6481 30.3281 15.6248 29.3803 13.7109 27.9004C11.797 26.4205 10.9004 24.4232 10.9004 21.9277C10.9004 20.463 11.4293 18.8517 12.4062 17.5195L12.6992 17.1211L12.5586 16.6465C12.3269 15.8586 12.0428 14.5822 11.9863 13.4297C11.9393 12.4711 12.1662 11.8652 12.3965 11.459ZM6.88477 24.3496C7.59146 24.3586 8.40146 24.3968 9.21289 24.4375C9.29042 24.7493 9.37882 25.056 9.48633 25.3555C6.17897 25.4252 3.70473 25.7578 2.17969 26.043C2.11521 25.5426 2.06385 25.0381 2.03516 24.5273C3.16221 24.4204 4.751 24.3224 6.88477 24.3496ZM39.1152 24.3652C41.2475 24.3382 42.8357 24.4363 43.9629 24.543C43.9342 25.0465 43.8837 25.5438 43.8203 26.0371C42.2408 25.7473 39.6997 25.4148 36.3066 25.3613C36.4119 25.0678 36.4996 24.7663 36.5762 24.4609C37.4713 24.413 38.3446 24.375 39.1152 24.3652ZM9.91211 26.3477C10.5088 27.5435 11.3615 28.6111 12.4883 29.4824C14.0288 30.6737 16.0316 31.506 18.4766 31.9512C18.1567 32.2798 17.8658 32.6407 17.6074 33.0215L17.5469 32.9688C17.5524 32.9624 17.0498 33.214 16.2988 33.2812C15.5479 33.3485 14.6216 33.3281 13.8008 33.3281C12.5758 33.3281 12.0362 32.7493 11.1738 31.6953C10.6963 31.0517 10.1141 30.5305 9.54883 30.1348C8.97002 29.7296 8.47626 29.4436 7.86523 29.3418L7.7832 29.3281H7.69922C7.23255 29.3281 6.78098 29.3619 6.35938 29.8438C6.14857 30.0847 6.00328 30.5307 6.09766 30.9082C6.19204 31.2857 6.43086 31.5177 6.64453 31.6602C8.01125 32.5713 8.25279 34.3746 9.10938 35.9785C9.9093 37.5724 11.6357 38.3281 13.4004 38.3281H16V43.1309C8.96781 40.6487 3.66468 34.5327 2.33203 27.0312C3.86293 26.7429 6.42654 26.3962 9.91211 26.3477ZM35.8828 26.3555C39.4455 26.386 42.081 26.7322 43.6699 27.0254C42.339 34.5296 37.0341 40.648 30 43.1309V37.9277C30 36.3432 29.4796 34.5958 28.5742 33.1387C28.2993 32.6963 27.9759 32.2779 27.6152 31.9023C29.9305 31.445 31.8324 30.6269 33.3125 29.4824C34.4368 28.613 35.2876 27.5485 35.8828 26.3555ZM21.6992 32.4277H24.5C25.3128 32.4277 26.1804 33.0755 26.875 34.1934C27.5696 35.3112 28 36.8123 28 37.9277V43.7266C26.3974 44.1174 24.7238 44.3281 23 44.3281C21.2762 44.3281 19.6026 44.1174 18 43.7266V37.9277C18 36.837 18.4678 35.3394 19.209 34.2168C19.9501 33.0942 20.8864 32.4277 21.6992 32.4277ZM10.3086 33.6094C11.1744 34.5074 12.2225 35.3281 13.8008 35.3281C14.5799 35.3281 15.5525 35.3562 16.4766 35.2734C16.4798 35.2731 16.483 35.2718 16.4863 35.2715C16.3646 35.6215 16.2737 35.9737 16.1973 36.3281H13.4004C12.1671 36.3281 11.2958 35.8826 10.8945 35.0801L10.8867 35.0664L10.8809 35.0547C10.7165 34.7493 10.5006 34.1387 10.3086 33.6094Z"/>
</mask>
<path d="M23 0.328125C10.3113 0.328125 0 10.6395 0 23.3281C0 36.0168 10.3113 46.3281 23 46.3281C35.6887 46.3281 46 36.0168 46 23.3281C46 10.6395 35.6887 0.328125 23 0.328125ZM23 2.32812C34.6073 2.32812 44 11.7208 44 23.3281C44 23.3995 43.9948 23.4698 43.9941 23.541C43.3545 23.482 42.6155 23.4259 41.6758 23.3926C40.3471 23.3455 38.6723 23.3591 36.7734 23.4531C36.8439 22.9628 36.8932 22.4655 36.8945 21.9551C36.9914 20.0825 36.3625 18.3306 35.3398 16.7832C35.5869 15.9295 35.8767 14.8433 35.9492 13.6113C36.0318 12.2071 35.9106 10.6499 34.7832 9.59766L34.4941 9.32812H34.0996C31.4165 9.32812 29.58 10.4513 28.457 11.3418C26.8355 10.7141 25.0122 10.3281 23 10.3281C20.9764 10.3281 19.1355 10.7195 17.4473 11.3457C16.3249 10.4548 14.4868 9.32812 11.8008 9.32812H11.4082L11.1191 9.5957C10.021 10.6154 9.91978 12.1299 9.98828 13.5273C10.0487 14.7596 10.3217 15.8803 10.5645 16.7754C9.52449 18.353 8.90039 20.1501 8.90039 21.9277C8.90039 22.4394 8.94797 22.9382 9.01758 23.4297C7.21182 23.3459 5.6021 23.3298 4.32422 23.375C3.38451 23.4082 2.64544 23.4638 2.00586 23.5234C2.00526 23.4581 2 23.3936 2 23.3281C2 11.7208 11.3927 2.32812 23 2.32812ZM12.3965 11.459C14.4141 11.6502 15.932 12.5511 16.6348 13.1758L17.1035 13.5898L17.6816 13.3535C19.2631 12.7023 21.027 12.3281 23 12.3281C24.973 12.3281 26.7374 12.7042 28.1992 13.3438L28.7852 13.6016L29.2637 13.1758C29.9667 12.5509 31.4872 11.6497 33.5059 11.459C33.7743 11.904 34.0075 12.5368 33.9512 13.4941C33.8838 14.6399 33.5773 15.8878 33.3457 16.6289L33.1953 17.1113L33.4941 17.5195C34.4836 18.8688 34.9881 20.3291 34.9023 21.873L34.9004 21.9004V21.9277C34.9004 24.4232 34.0018 26.4205 32.0879 27.9004C30.174 29.3803 27.1527 30.3281 22.9004 30.3281C18.6481 30.3281 15.6248 29.3803 13.7109 27.9004C11.797 26.4205 10.9004 24.4232 10.9004 21.9277C10.9004 20.463 11.4293 18.8517 12.4062 17.5195L12.6992 17.1211L12.5586 16.6465C12.3269 15.8586 12.0428 14.5822 11.9863 13.4297C11.9393 12.4711 12.1662 11.8652 12.3965 11.459ZM6.88477 24.3496C7.59146 24.3586 8.40146 24.3968 9.21289 24.4375C9.29042 24.7493 9.37882 25.056 9.48633 25.3555C6.17897 25.4252 3.70473 25.7578 2.17969 26.043C2.11521 25.5426 2.06385 25.0381 2.03516 24.5273C3.16221 24.4204 4.751 24.3224 6.88477 24.3496ZM39.1152 24.3652C41.2475 24.3382 42.8357 24.4363 43.9629 24.543C43.9342 25.0465 43.8837 25.5438 43.8203 26.0371C42.2408 25.7473 39.6997 25.4148 36.3066 25.3613C36.4119 25.0678 36.4996 24.7663 36.5762 24.4609C37.4713 24.413 38.3446 24.375 39.1152 24.3652ZM9.91211 26.3477C10.5088 27.5435 11.3615 28.6111 12.4883 29.4824C14.0288 30.6737 16.0316 31.506 18.4766 31.9512C18.1567 32.2798 17.8658 32.6407 17.6074 33.0215L17.5469 32.9688C17.5524 32.9624 17.0498 33.214 16.2988 33.2812C15.5479 33.3485 14.6216 33.3281 13.8008 33.3281C12.5758 33.3281 12.0362 32.7493 11.1738 31.6953C10.6963 31.0517 10.1141 30.5305 9.54883 30.1348C8.97002 29.7296 8.47626 29.4436 7.86523 29.3418L7.7832 29.3281H7.69922C7.23255 29.3281 6.78098 29.3619 6.35938 29.8438C6.14857 30.0847 6.00328 30.5307 6.09766 30.9082C6.19204 31.2857 6.43086 31.5177 6.64453 31.6602C8.01125 32.5713 8.25279 34.3746 9.10938 35.9785C9.9093 37.5724 11.6357 38.3281 13.4004 38.3281H16V43.1309C8.96781 40.6487 3.66468 34.5327 2.33203 27.0312C3.86293 26.7429 6.42654 26.3962 9.91211 26.3477ZM35.8828 26.3555C39.4455 26.386 42.081 26.7322 43.6699 27.0254C42.339 34.5296 37.0341 40.648 30 43.1309V37.9277C30 36.3432 29.4796 34.5958 28.5742 33.1387C28.2993 32.6963 27.9759 32.2779 27.6152 31.9023C29.9305 31.445 31.8324 30.6269 33.3125 29.4824C34.4368 28.613 35.2876 27.5485 35.8828 26.3555ZM21.6992 32.4277H24.5C25.3128 32.4277 26.1804 33.0755 26.875 34.1934C27.5696 35.3112 28 36.8123 28 37.9277V43.7266C26.3974 44.1174 24.7238 44.3281 23 44.3281C21.2762 44.3281 19.6026 44.1174 18 43.7266V37.9277C18 36.837 18.4678 35.3394 19.209 34.2168C19.9501 33.0942 20.8864 32.4277 21.6992 32.4277ZM10.3086 33.6094C11.1744 34.5074 12.2225 35.3281 13.8008 35.3281C14.5799 35.3281 15.5525 35.3562 16.4766 35.2734C16.4798 35.2731 16.483 35.2718 16.4863 35.2715C16.3646 35.6215 16.2737 35.9737 16.1973 36.3281H13.4004C12.1671 36.3281 11.2958 35.8826 10.8945 35.0801L10.8867 35.0664L10.8809 35.0547C10.7165 34.7493 10.5006 34.1387 10.3086 33.6094Z" fill="white" stroke="white" stroke-width="2" mask="url(#path-1-inside-1_11_22)"/>
</g>
<defs>
<clipPath id="clip0_11_22">
<rect width="46" height="46" fill="white" transform="translate(0 0.328125)"/>
</clipPath>
</defs>
</svg>
