<svg width="46" height="47" viewBox="0 0 46 47" fill="none" xmlns="http://www.w3.org/2000/svg">
<g clip-path="url(#clip0_11_7)">
<path d="M23 0C10.3477 0 0 9.59766 0 21.5C0 28.0078 3.13281 33.7852 8 37.7188V46.6562L9.46875 45.875L16.6875 42.125C18.7031 42.6641 20.8008 43 23 43C35.6523 43 46 33.4023 46 21.5C46 9.59766 35.6523 0 23 0ZM23 2C34.6445 2 44 10.7578 44 21.5C44 32.2422 34.6445 41 23 41C20.8359 41 18.7422 40.6875 16.7812 40.125L16.4062 40.0312L16.0625 40.2188L10 43.375V36.8125L9.625 36.5312C4.96094 32.9414 2 27.5391 2 21.5C2 10.7578 11.3555 2 23 2ZM20.7188 15.7188L8.6875 28.4688L19.5 22.4062L25.2812 28.5938L37.1562 15.7188L26.625 21.625L20.7188 15.7188Z" fill="white"/>
</g>
<defs>
<clipPath id="clip0_11_7">
<rect width="46" height="46.6562" fill="white"/>
</clipPath>
</defs>
</svg>
