<svg width="46" height="46" viewBox="0 0 46 46" fill="none" xmlns="http://www.w3.org/2000/svg">
<circle cx="23" cy="23" r="22" stroke="black" stroke-width="2"/>
<g clip-path="url(#clip0_11_56)">
<path d="M11.8 11.8H27.4V14.6H28.2V11.4C28.2 11.16 28.04 11 27.8 11H11.4C11.16 11 11 11.16 11 11.4V34.6C11 34.84 11.16 35 11.4 35H24.2V34.2H11.8V11.8Z" fill="black"/>
<path d="M28.48 19.5201L27.36 16.8801C27.32 16.7201 27.16 16.6401 27 16.6401C26.84 16.6401 26.72 16.7201 26.64 16.8801L25.52 19.5201C25.44 19.6001 25.4 19.6801 25.4 19.8001V32.2001V34.6001C25.4 34.8401 25.56 35.0001 25.8 35.0001H28.2C28.44 35.0001 28.6 34.8401 28.6 34.6001V32.2001V19.8001C28.6 19.6801 28.56 19.5601 28.48 19.5201ZM26.2 20.2001H27.8V31.8001H26.2V20.2001ZM27 18.0001L27.6 19.4001H26.4L27 18.0001ZM27.8 34.2001H26.2V32.6001H27.8V34.2001Z" fill="black"/>
<path d="M34.6 26.2002H30.2C29.96 26.2002 29.8 26.3602 29.8 26.6002V34.6002C29.8 34.8402 29.96 35.0002 30.2 35.0002H34.6C34.84 35.0002 35 34.8402 35 34.6002V26.6002C35 26.3602 34.84 26.2002 34.6 26.2002ZM34.2 27.0002V29.0002H30.6V27.0002H34.2ZM30.6 34.2002V29.8002H34.2V34.2002H30.6Z" fill="black"/>
<path d="M21.8 15.4C21.8 14.08 20.72 13 19.4 13C18.08 13 17 14.08 17 15.4C17 16.72 18.08 17.8 19.4 17.8C20.72 17.8 21.8 16.72 21.8 15.4ZM17.8 15.4C17.8 14.52 18.52 13.8 19.4 13.8C20.28 13.8 21 14.52 21 15.4C21 16.28 20.28 17 19.4 17C18.52 17 17.8 16.28 17.8 15.4Z" fill="black"/>
<path d="M21.8 19H17V19.8H21.8V19Z" fill="black"/>
<path d="M21.8 21H17V21.8H21.8V21Z" fill="black"/>
<path d="M19.4 23.3999H13.4V24.1999H19.4V23.3999Z" fill="black"/>
<path d="M23.8 25.3999H13.4V26.1999H23.8V25.3999Z" fill="black"/>
<path d="M23.8 27.3999H13.4V28.1999H23.8V27.3999Z" fill="black"/>
<path d="M16.6 29.3999H13.4V30.1999H16.6V29.3999Z" fill="black"/>
<path d="M17.8 31.3999H13.4V32.1999H17.8V31.3999Z" fill="black"/>
<path d="M22.6 29.3999H19.4V30.1999H22.6V29.3999Z" fill="black"/>
<path d="M23.8 31.3999H19.4V32.1999H23.8V31.3999Z" fill="black"/>
</g>
<defs>
<clipPath id="clip0_11_56">
<rect width="24" height="24" fill="white" transform="translate(11 11)"/>
</clipPath>
</defs>
</svg>
