<svg width="40" height="40" viewBox="0 0 40 40" fill="none" xmlns="http://www.w3.org/2000/svg">
<g clip-path="url(#clip0_2_434)">
<mask id="mask0_2_434" style="mask-type:luminance" maskUnits="userSpaceOnUse" x="0" y="0" width="40" height="40">
<path d="M40 0H0V40H40V0Z" fill="white"/>
</mask>
<g mask="url(#mask0_2_434)">
<path d="M19.9156 6.79806L6.18774 14.7239L19.9156 22.6497L33.6436 14.7239L19.9156 6.79806Z" fill="#404F51"/>
<path d="M2.2229 10.0195L15.4804 2.24438L19.7856 7.36178L6.21324 14.7274L2.2229 10.0195Z" fill="#6D8489"/>
<path d="M38.1092 14.7145L25.8348 7.13745L20.3113 7.73163L33.5539 14.7145H38.1092Z" fill="#677D7F"/>
<path d="M19.9155 1.24989L8.93311 7.59058L19.9155 13.9313L30.8979 7.59058L19.9155 1.24989Z" fill="#3E5A72"/>
<path d="M30.8969 7.59071L19.9146 13.9314L19.9146 26.6128L30.8969 20.2721L30.8969 7.59071Z" fill="#2B3E51"/>
<path d="M8.97977 7.59071L19.9622 13.9314L19.9622 26.6128L8.97977 20.2721L8.97977 7.59071Z" fill="#2D4654"/>
<path d="M27.4817 9.61916L24.0955 11.5742L24.0955 27.4258L27.4817 25.4708L27.4817 9.61916Z" fill="#1E9679"/>
<path d="M12.4817 9.61916L15.8679 11.5742L15.8679 27.4258L12.4817 25.4708L12.4817 9.61916Z" fill="#1E9679"/>
<path d="M12.9065 5.27191L15.9519 3.52979L27.4836 9.61917L24.049 11.5881L12.9065 5.27191Z" fill="#24BD9C"/>
<path d="M27.0251 5.27191L23.9797 3.52979L12.448 9.61917L15.8826 11.5881L27.0251 5.27191Z" fill="#24BD9C"/>
<path d="M33.6437 14.7241L19.9158 22.6499L19.9158 38.5015L33.6437 30.5757L33.6437 14.7241Z" fill="#374347"/>
<path d="M6.18787 14.7241L19.9158 22.6499L19.9158 38.5015L6.18787 30.5757L6.18787 14.7241Z" fill="#495A5E"/>
<path d="M19.9646 22.6922L33.5403 14.7141L40.0004 18.9044L26.184 26.3667L19.9646 22.6922Z" fill="#6D8489"/>
<path d="M19.9646 22.6814L6.21372 14.7275L0.000488281 15.9019L13.4355 23.4789L19.9646 22.6814Z" fill="#677D7F"/>
<path d="M19.0437 8.63074C19.0437 8.63074 17.5218 7.91369 16.7437 7.46447C15.9655 7.01523 15.1184 6.37249 15.1184 5.82099C15.1184 5.26949 15.9655 5.01807 16.7437 5.4673C17.5218 5.91654 19.0437 8.63074 19.0437 8.63074Z" fill="#1F9B7D"/>
<path d="M21.8086 6.62855C21.8086 6.62855 20.2867 5.9115 19.5086 5.46226C18.7304 5.01303 17.8833 4.37029 17.8833 3.81879C17.8833 3.26729 18.7304 3.01588 19.5086 3.4651C20.2867 3.91434 21.8086 6.62855 21.8086 6.62855Z" fill="#24BD9C"/>
<path d="M19.1292 8.66476C19.1292 8.66476 20.5654 7.79236 21.3435 8.24159C22.1217 8.69082 22.9822 9.82816 22.9822 10.3797C22.9822 10.9312 22.1217 10.5693 21.3435 10.1201C20.5654 9.67087 19.1292 8.66476 19.1292 8.66476Z" fill="#1F9B7D"/>
<path d="M21.9368 6.61324C21.9368 6.61324 23.373 5.74085 24.1511 6.19008C24.9293 6.63931 25.7898 7.77665 25.7898 8.32815C25.7898 8.87965 24.9293 8.51783 24.1511 8.06859C23.373 7.61936 21.9368 6.61324 21.9368 6.61324Z" fill="#24BD9C"/>
<path d="M18.1104 3.42847L21.7086 6.48L25.7912 8.4959L23.2336 9.97253L19.9637 6.80187L15.5527 4.90509L18.1104 3.42847Z" fill="#24BD9C"/>
</g>
</g>
<defs>
<clipPath id="clip0_2_434">
<rect width="40" height="40" fill="white"/>
</clipPath>
</defs>
</svg>
