<svg width="40" height="40" viewBox="0 0 40 40" fill="none" xmlns="http://www.w3.org/2000/svg">
<path fill-rule="evenodd" clip-rule="evenodd" d="M6.84321 14.6533L14.7271 21.8736L14.3569 24.5853L4.34493 15.4161C3.88502 14.9948 3.88502 14.3118 4.34493 13.8906L7.44138 11.0548L9.01334 12.6658L6.84321 14.6533ZM25.6431 24.5853L25.2729 21.8736L33.1568 14.6533L30.9866 12.6659L32.5587 11.0549L35.655 13.8906C36.115 14.3118 36.115 14.9948 35.655 15.4161L25.6431 24.5853ZM26.6744 5.66594L24.3885 6.62301L19.9999 2.60393L15.6115 6.62299L13.3256 5.66591L19.1673 0.315901C19.6273 -0.1053 20.3728 -0.1053 20.8327 0.315901L26.6744 5.66594ZM8.76239 5.53441C8.53596 5.43961 8.2689 5.48548 8.09537 5.64896L6.62324 7.03569C6.40773 7.23871 6.40036 7.55984 6.60637 7.77096L13.6726 15.0128C13.7804 15.1233 13.9333 15.1883 14.0951 15.1926C14.257 15.1968 14.4134 15.1396 14.5281 15.0348L19.2388 10.7205C19.3753 10.5956 19.4362 10.4174 19.4021 10.2435C19.3677 10.0697 19.2426 9.92217 19.0674 9.84872L8.76239 5.53441ZM31.238 5.53441C31.4643 5.43961 31.7313 5.48548 31.9049 5.64896L33.3771 7.03569C33.5927 7.23871 33.6001 7.55984 33.394 7.77096L26.3277 15.0128C26.2199 15.1233 26.067 15.1883 25.9052 15.1926C25.7433 15.1968 25.5869 15.1396 25.4722 15.0348L20.7615 10.7205C20.625 10.5956 20.5641 10.4174 20.5982 10.2435C20.6326 10.0697 20.7577 9.92217 20.9332 9.84872L31.238 5.53441ZM20.0001 11.957C20.1563 11.957 20.3062 12.0139 20.4164 12.115L22.7719 14.2721C22.8825 14.3733 22.9445 14.5106 22.9445 14.6536C22.9445 14.7966 22.8825 14.9336 22.7719 15.0348L20.4164 17.1921C20.1866 17.4026 19.8137 17.4026 19.5839 17.1921L17.2283 15.0348C16.9985 14.8243 16.9985 14.4828 17.2283 14.2721L19.5839 12.115C19.6941 12.0139 19.844 11.957 20.0001 11.957ZM17.4536 17.3791C17.6665 17.3123 17.9021 17.3623 18.0612 17.5078L20.0001 19.2838L21.9391 17.5078C22.0982 17.3623 22.3338 17.3123 22.5467 17.3791C22.7594 17.4461 22.912 17.6181 22.9398 17.8223L25.2953 35.0796C25.3177 35.2446 25.2557 35.4101 25.1274 35.5279L20.4164 39.8421C20.1866 40.0526 19.8137 40.0526 19.5839 39.8421L14.8728 35.5279C14.7445 35.4101 14.6826 35.2446 14.705 35.0796L17.0605 17.8223C17.0883 17.6181 17.2409 17.4461 17.4536 17.3791Z" fill="#2F67E6"/>
</svg>
