<svg width="40" height="40" viewBox="0 0 40 40" fill="none" xmlns="http://www.w3.org/2000/svg">
<mask id="mask0_2_478" style="mask-type:luminance" maskUnits="userSpaceOnUse" x="7" y="7" width="27" height="27">
<path d="M33.2968 7.4397H7.69678V33.0397H33.2968V7.4397Z" fill="white"/>
</mask>
<g mask="url(#mask0_2_478)">
<path d="M21.319 7.4397V13.4397C21.319 16.7532 24.0006 19.4397 27.3078 19.4397C30.615 19.4397 33.2966 16.7532 33.2966 13.4397V7.4397H21.2966H21.319Z" fill="#1D75BB"/>
<path d="M33.2967 23.6814H30.6532V21.0397H23.9321V23.6814H21.2886V30.3979H23.9321V33.0397H30.6532V30.3979H33.2967V23.6814Z" fill="#FFD100"/>
<g filter="url(#filter0_d_2_478)">
<path d="M19.6793 12.0972L17.3632 16.3785C16.9245 17.1681 17.5035 18.1507 18.416 18.1507H18.5038C19.1705 18.1507 19.6969 17.6068 19.6969 16.9575V12.1147L19.6793 12.0972Z" fill="#FF3E3E"/>
</g>
<path d="M17.5751 8.72778C16.8907 8.72778 16.2589 9.09633 15.943 9.71057L12.8718 15.3966C12.2049 16.6426 13.1 18.1519 14.5039 18.1519C15.1884 18.1519 15.8201 17.7834 16.136 17.1692L19.2072 11.4831C19.8741 10.237 18.9791 8.72778 17.5751 8.72778Z" fill="#FF3E3E"/>
<path d="M12.6252 8.72754C11.9407 8.72754 11.3089 9.09608 10.9931 9.71032L7.92187 15.3964C7.25499 16.6424 8.15002 18.1517 9.55398 18.1517C10.2384 18.1517 10.8702 17.7832 11.1861 17.169L14.2573 11.4828C14.9241 10.2368 14.0291 8.72754 12.6252 8.72754Z" fill="#FF3E3E"/>
<path d="M17.6266 20.2397H10.5669C8.96982 20.2397 7.69678 21.5359 7.69678 23.1098C7.69678 24.6839 8.99295 25.9801 10.5669 25.9801H17.6266C19.2237 25.9801 20.4967 24.6839 20.4967 23.1098C20.4967 21.5127 19.2005 20.2397 17.6266 20.2397Z" fill="#009845"/>
<path d="M17.6266 26.9055H10.5669C8.96982 26.9055 7.69678 28.2018 7.69678 29.7758C7.69678 31.3729 8.99295 32.6458 10.5669 32.6458H17.6266C19.2237 32.6458 20.4967 31.3497 20.4967 29.7758C20.4967 28.1786 19.2005 26.9055 17.6266 26.9055Z" fill="#009845"/>
</g>
<defs>
<filter id="filter0_d_2_478" x="-11.1852" y="-16.3016" width="59.281" height="62.8511" filterUnits="userSpaceOnUse" color-interpolation-filters="sRGB">
<feFlood flood-opacity="0" result="BackgroundImageFix"/>
<feColorMatrix in="SourceAlpha" type="matrix" values="0 0 0 0 0 0 0 0 0 0 0 0 0 0 0 0 0 0 127 0" result="hardAlpha"/>
<feOffset/>
<feGaussianBlur stdDeviation="14.1994"/>
<feColorMatrix type="matrix" values="0 0 0 0 0.890196 0 0 0 0 0.301961 0 0 0 0 0.215686 0 0 0 0.6 0"/>
<feBlend mode="normal" in2="BackgroundImageFix" result="effect1_dropShadow_2_478"/>
<feBlend mode="normal" in="SourceGraphic" in2="effect1_dropShadow_2_478" result="shape"/>
</filter>
</defs>
</svg>
