<svg width="32" height="32" viewBox="0 0 32 32" fill="none" xmlns="http://www.w3.org/2000/svg">
<g clip-path="url(#clip0_125_3)">
<path d="M0 12.7951H2.78306V13.8553C2.78306 13.8553 2.96261 13.4962 3.39439 13.1542C3.82617 12.7951 4.52728 12.4531 5.56612 12.4531C6.25013 12.4531 7.10941 12.6327 7.84472 13.4065C8.05848 13.6202 8.2594 13.8895 8.43896 14.2315C8.63561 13.928 8.87074 13.6202 9.15716 13.368C9.7514 12.8293 10.5594 12.4531 11.5982 12.4531C12.2993 12.4531 13.4108 12.6156 14.2188 13.4578C15.1508 14.4453 15.2961 15.1079 15.2961 17.3181V22.7603H12.3164V17.4635C12.3164 17.0488 12.3164 16.5102 12.1198 16.0613C11.9402 15.5953 11.564 15.2533 10.7902 15.2533C9.96515 15.2533 9.55047 15.6295 9.35382 16.0784C9.14006 16.5273 9.14006 17.0317 9.14006 17.3181V22.7603H6.16035V17.3352C6.16035 17.0659 6.16035 16.5444 5.9808 16.0955C5.78415 15.6295 5.42504 15.2533 4.66836 15.2533C3.82617 15.2533 3.41149 15.6466 3.19774 16.1339C2.98399 16.617 2.98399 17.1557 2.98399 17.4635V22.7603H0V12.7951Z" fill="white" fill-opacity="0.8"/>
<path d="M32.0002 22.7515H29.2172V21.6913C29.2172 21.6913 29.0376 22.0504 28.6058 22.3924C28.1741 22.7515 27.473 23.0935 26.4341 23.0935C25.7501 23.0935 24.8908 22.914 24.1555 22.1402C23.9418 21.9264 23.7408 21.6571 23.5613 21.3151C23.3646 21.6186 23.1295 21.9264 22.8431 22.1787C22.2488 22.7173 21.4409 23.0935 20.402 23.0935C19.7009 23.0935 18.5894 22.9311 17.7814 22.0889C16.8495 21.1014 16.7041 20.4387 16.7041 18.2285V12.7864H19.6838V18.0832C19.6838 18.4978 19.6838 19.0365 19.8805 19.4854C20.06 19.9514 20.4362 20.2934 21.21 20.2934C22.0351 20.2934 22.4498 19.9172 22.6464 19.4683C22.8602 19.0194 22.8602 18.5149 22.8602 18.2285V12.7864H25.8399V18.2114C25.8399 18.4807 25.8399 19.0023 26.0194 19.4512C26.2161 19.9172 26.5752 20.2934 27.3319 20.2934C28.1741 20.2934 28.5887 19.9001 28.8025 19.4127C29.0163 18.9296 29.0163 18.391 29.0163 18.0832V12.7864H31.996V22.7515H32.0002Z" fill="white" fill-opacity="0.8"/>
</g>
<defs>
<clipPath id="clip0_125_3">
<rect width="32" height="32" fill="white"/>
</clipPath>
</defs>
</svg>
