<svg width="40" height="40" viewBox="0 0 40 40" fill="none" xmlns="http://www.w3.org/2000/svg">
<g clip-path="url(#clip0_2_431)">
<path d="M0 15.9939H3.47883V17.3192C3.47883 17.3192 3.70326 16.8703 4.24299 16.4428C4.78271 15.9939 5.6591 15.5664 6.95765 15.5664C7.81266 15.5664 8.88676 15.7909 9.8059 16.7582C10.0731 17.0253 10.3243 17.3619 10.5487 17.7894C10.7945 17.41 11.0884 17.0253 11.4464 16.71C12.1892 16.0367 13.1993 15.5664 14.4977 15.5664C15.3741 15.5664 16.7635 15.7695 17.7735 16.8223C18.9385 18.0567 19.1201 18.8849 19.1201 21.6477V28.4504H15.3955V21.8294C15.3955 21.311 15.3955 20.6378 15.1497 20.0767C14.9252 19.4942 14.455 19.0667 13.4878 19.0667C12.4564 19.0667 11.9381 19.5369 11.6923 20.098C11.4251 20.6592 11.4251 21.2897 11.4251 21.6477V28.4504H7.70044V21.669C7.70044 21.3324 7.70044 20.6805 7.476 20.1194C7.23019 19.5369 6.7813 19.0667 5.83545 19.0667C4.78271 19.0667 4.26436 19.5583 3.99718 20.1674C3.72999 20.7713 3.72999 21.4447 3.72999 21.8294V28.4504H0V15.9939Z" fill="#6E6E6E"/>
<path d="M40.0002 28.4393H36.5215V27.114C36.5215 27.114 36.297 27.5629 35.7573 27.9904C35.2176 28.4393 34.3413 28.8668 33.0426 28.8668C32.1876 28.8668 31.1135 28.6424 30.1944 27.6752C29.9273 27.4079 29.676 27.0713 29.4516 26.6438C29.2058 27.0232 28.9119 27.4079 28.5539 27.7233C27.811 28.3965 26.8011 28.8668 25.5025 28.8668C24.6261 28.8668 23.2368 28.6638 22.2268 27.611C21.0619 26.3767 20.8801 25.5483 20.8801 22.7855V15.9829H24.6048V22.6039C24.6048 23.1222 24.6048 23.7955 24.8506 24.3567C25.075 24.9392 25.5453 25.3667 26.5125 25.3667C27.5439 25.3667 28.0623 24.8964 28.308 24.3353C28.5753 23.7742 28.5753 23.1435 28.5753 22.7855V15.9829H32.2999V22.7642C32.2999 23.1008 32.2999 23.7528 32.5243 24.3139C32.7701 24.8964 33.219 25.3667 34.1649 25.3667C35.2176 25.3667 35.7359 24.875 36.0031 24.2658C36.2704 23.6619 36.2704 22.9887 36.2704 22.6039V15.9829H39.995V28.4393H40.0002Z" fill="#6E6E6E"/>
</g>
<defs>
<clipPath id="clip0_2_431">
<rect width="40" height="40" fill="white"/>
</clipPath>
</defs>
</svg>
