<svg width="40" height="40" viewBox="0 0 40 40" fill="none" xmlns="http://www.w3.org/2000/svg">
<g filter="url(#filter0_d_2_458)">
<path d="M28.8889 18.4615C28.8889 23.5595 24.9092 27.6923 20 27.6923C15.0908 27.6923 11.1111 23.5595 11.1111 18.4615C11.1111 13.3635 15.0908 9.23071 20 9.23071C24.9092 9.23071 28.8889 13.3635 28.8889 18.4615Z" fill="#FFC700"/>
<path d="M17.7778 2.30769C17.7778 1.03319 18.7728 0 20.0001 0C21.2273 0 22.2223 1.03319 22.2223 2.30769V5.76923C22.2223 7.04374 21.2273 8.07692 20.0001 8.07692C18.7728 8.07692 17.7778 7.04374 17.7778 5.76923V2.30769Z" fill="#FFC700"/>
<path d="M17.7778 31.1539C17.7778 29.8794 18.7728 28.8462 20.0001 28.8462C21.2273 28.8462 22.2223 29.8794 22.2223 31.1539V34.6154C22.2223 35.8899 21.2273 36.9231 20.0001 36.9231C18.7728 36.9231 17.7778 35.8899 17.7778 34.6154V31.1539Z" fill="#FFC700"/>
<path d="M4.44439 20.7692C3.21709 20.7692 2.22217 19.736 2.22217 18.4615C2.22217 17.187 3.21709 16.1538 4.44439 16.1538H7.77772C9.00503 16.1538 9.99994 17.187 9.99994 18.4615C9.99994 19.736 9.00503 20.7692 7.77772 20.7692H4.44439Z" fill="#FFC700"/>
<path d="M32.2222 20.7692C30.995 20.7692 30 19.736 30 18.4615C30 17.187 30.995 16.1538 32.2222 16.1538H35.5556C36.7828 16.1538 37.7778 17.187 37.7778 18.4615C37.7778 19.736 36.7828 20.7692 35.5556 20.7692H32.2222Z" fill="#FFC700"/>
<path d="M10.2976 5.62574C9.68396 4.52199 10.0481 3.11063 11.111 2.47337C12.1739 1.83613 13.5329 2.2143 14.1466 3.31805L15.8133 6.31583C16.4269 7.41959 16.0627 8.83094 14.9999 9.4682C13.937 10.1054 12.5779 9.72728 11.9643 8.62353L10.2976 5.62574Z" fill="#FFC700"/>
<path d="M24.1865 30.6072C23.5729 29.5036 23.937 28.0922 25 27.4549C26.0628 26.8177 27.4219 27.1959 28.0355 28.2996L29.7022 31.2974C30.3158 32.4011 29.9517 33.8125 28.8889 34.4497C27.8259 35.0869 26.4668 34.7088 25.8532 33.6051L24.1865 30.6072Z" fill="#FFC700"/>
<path d="M7.6396 28.5369C6.57675 29.1742 5.21765 28.796 4.60401 27.6923C3.99035 26.5886 4.35452 25.1773 5.41738 24.54L8.30414 22.8093C9.36701 22.1719 10.7261 22.5502 11.3398 23.6539C11.9534 24.7576 11.5892 26.1689 10.5264 26.8062L7.6396 28.5369Z" fill="#FFC700"/>
<path d="M31.6958 14.1139C30.6329 14.7512 29.2739 14.373 28.6601 13.2692C28.0465 12.1655 28.4107 10.7541 29.4736 10.1169L32.3603 8.38609C33.4233 7.74885 34.7824 8.12702 35.396 9.23077C36.0096 10.3345 35.6455 11.7459 34.5825 12.3831L31.6958 14.1139Z" fill="#FFC700"/>
<path d="M25.8532 3.31805C26.4668 2.2143 27.8259 1.83613 28.8889 2.47337C29.9517 3.11063 30.3158 4.52199 29.7022 5.62574L28.0355 8.62353C27.4219 9.72728 26.0628 10.1054 25 9.4682C23.937 8.83094 23.5729 7.41959 24.1865 6.31583L25.8532 3.31805Z" fill="#FFC700"/>
<path d="M11.9643 28.2996C12.5779 27.1959 13.937 26.8177 14.9999 27.4549C16.0627 28.0922 16.4269 29.5036 15.8133 30.6072L14.1466 33.6051C13.5329 34.7088 12.1739 35.0869 11.111 34.4497C10.0481 33.8125 9.68396 32.4011 10.2976 31.2974L11.9643 28.2996Z" fill="#FFC700"/>
<path d="M5.41738 12.3831C4.35452 11.7459 3.99035 10.3345 4.60401 9.23077C5.21765 8.12702 6.57675 7.74885 7.6396 8.38609L10.5264 10.1169C11.5892 10.7541 11.9534 12.1655 11.3398 13.2692C10.7261 14.373 9.36701 14.7512 8.30414 14.1139L5.41738 12.3831Z" fill="#FFC700"/>
<path d="M29.4736 26.8062C28.4107 26.1689 28.0465 24.7576 28.6601 23.6539C29.2739 22.5502 30.6329 22.1719 31.6958 22.8093L34.5825 24.54C35.6455 25.1773 36.0096 26.5886 35.396 27.6923C34.7824 28.796 33.4233 29.1742 32.3603 28.5369L29.4736 26.8062Z" fill="#FFC700"/>
<path fill-rule="evenodd" clip-rule="evenodd" d="M19.9999 27.4385C24.7742 27.4385 28.6444 23.4194 28.6444 18.4615C28.6444 13.5037 24.7742 9.48462 19.9999 9.48462C15.2257 9.48462 11.3555 13.5037 11.3555 18.4615C11.3555 23.4194 15.2257 27.4385 19.9999 27.4385ZM21.9777 5.76923V2.30769C21.9777 1.17338 21.0922 0.253846 19.9999 0.253846C18.9076 0.253846 18.0222 1.17338 18.0222 2.30769V5.76923C18.0222 6.90354 18.9076 7.82308 19.9999 7.82308C21.0922 7.82308 21.9777 6.90354 21.9777 5.76923ZM21.9777 34.6154V31.1538C21.9777 30.0195 21.0922 29.1 19.9999 29.1C18.9076 29.1 18.0222 30.0195 18.0222 31.1538V34.6154C18.0222 35.7497 18.9076 36.6692 19.9999 36.6692C21.0922 36.6692 21.9777 35.7497 21.9777 34.6154ZM7.77772 16.4077H4.44439C3.35209 16.4077 2.46661 17.3272 2.46661 18.4615C2.46661 19.5958 3.35209 20.5154 4.44439 20.5154H7.77772C8.87002 20.5154 9.7555 19.5958 9.7555 18.4615C9.7555 17.3272 8.87002 16.4077 7.77772 16.4077ZM35.5555 16.4077H32.2222C31.1299 16.4077 30.2444 17.3272 30.2444 18.4615C30.2444 19.5958 31.1299 20.5154 32.2222 20.5154H35.5555C36.6478 20.5154 37.5333 19.5958 37.5333 18.4615C37.5333 17.3272 36.6478 16.4077 35.5555 16.4077ZM15.6016 6.44275L13.9349 3.44497C13.3888 2.46263 12.1792 2.12606 11.2332 2.69322C10.2873 3.26037 9.96318 4.51648 10.5093 5.49882L12.176 8.4966C12.7221 9.47894 13.9317 9.81551 14.8777 9.24835C15.8236 8.6812 16.1478 7.42509 15.6016 6.44275ZM29.4905 31.4243L27.8238 28.4265C27.2777 27.4442 26.0681 27.1075 25.1222 27.6748C24.1761 28.2418 23.8521 29.498 24.3982 30.4803L26.0648 33.4782C26.6111 34.4605 27.8205 34.7971 28.7666 34.2298C29.7125 33.6628 30.0367 32.4066 29.4905 31.4243ZM8.42626 23.0291L5.5395 24.7598C4.59355 25.3269 4.26944 26.5831 4.81559 27.5654C5.36174 28.5477 6.57132 28.8843 7.51728 28.3171L10.404 26.5863C11.35 26.0192 11.6741 24.7631 11.1279 23.7808C10.5818 22.7985 9.37221 22.4618 8.42626 23.0291ZM32.4825 8.60594L29.5958 10.3367C28.6499 10.9039 28.3257 12.16 28.8718 13.1423C29.418 14.1246 30.6277 14.4612 31.5736 13.8941L34.4602 12.1633C35.4063 11.5961 35.7303 10.34 35.1842 9.35769C34.638 8.37535 33.4285 8.03878 32.4825 8.60594ZM27.8238 8.4966L29.4905 5.49882C30.0367 4.51648 29.7125 3.26037 28.7666 2.69322C27.8205 2.12606 26.6111 2.46263 26.0648 3.44497L24.3982 6.44275C23.8521 7.42509 24.1761 8.6812 25.1222 9.24835C26.0681 9.81551 27.2777 9.47894 27.8238 8.4966ZM13.9349 33.4782L15.6016 30.4803C16.1478 29.498 15.8236 28.2418 14.8777 27.6748C13.9317 27.1075 12.7221 27.4442 12.176 28.4265L10.5093 31.4243C9.96318 32.4066 10.2873 33.6628 11.2332 34.2298C12.1792 34.7971 13.3888 34.4605 13.9349 33.4782ZM10.404 10.3367L7.51728 8.60594C6.57132 8.03878 5.36174 8.37535 4.81559 9.35769C4.26944 10.34 4.59355 11.5961 5.5395 12.1633L8.42626 13.8941C9.37221 14.4612 10.5818 14.1246 11.1279 13.1423C11.6741 12.16 11.35 10.9039 10.404 10.3367ZM34.4602 24.7598L31.5736 23.0291C30.6277 22.4618 29.418 22.7985 28.8718 23.7808C28.3257 24.7631 28.6499 26.0192 29.5958 26.5863L32.4825 28.3171C33.4285 28.8843 34.638 28.5477 35.1842 27.5654C35.7303 26.5831 35.4063 25.3269 34.4602 24.7598ZM17.7777 2.30769C17.7777 1.03319 18.7727 0 19.9999 0C21.2272 0 22.2222 1.03319 22.2222 2.30769V5.76923C22.2222 7.04374 21.2272 8.07692 19.9999 8.07692C18.7727 8.07692 17.7777 7.04374 17.7777 5.76923V2.30769ZM28.8888 18.4615C28.8888 23.5595 24.9091 27.6923 19.9999 27.6923C15.0908 27.6923 11.1111 23.5595 11.1111 18.4615C11.1111 13.3635 15.0908 9.23077 19.9999 9.23077C24.9091 9.23077 28.8888 13.3635 28.8888 18.4615ZM19.9999 28.8462C18.7727 28.8462 17.7777 29.8794 17.7777 31.1538V34.6154C17.7777 35.8898 18.7727 36.9231 19.9999 36.9231C21.2272 36.9231 22.2222 35.8898 22.2222 34.6154V31.1538C22.2222 29.8794 21.2272 28.8462 19.9999 28.8462ZM4.44439 20.7692C3.21709 20.7692 2.22217 19.736 2.22217 18.4615C2.22217 17.1871 3.21709 16.1538 4.44439 16.1538H7.77772C9.00503 16.1538 9.99995 17.1871 9.99995 18.4615C9.99995 19.736 9.00503 20.7692 7.77772 20.7692H4.44439ZM29.9999 18.4615C29.9999 19.736 30.9949 20.7692 32.2222 20.7692H35.5555C36.7828 20.7692 37.7777 19.736 37.7777 18.4615C37.7777 17.1871 36.7828 16.1538 35.5555 16.1538H32.2222C30.9949 16.1538 29.9999 17.1871 29.9999 18.4615ZM10.2976 5.62574C9.68398 4.52198 10.0481 3.11063 11.111 2.47337C12.1739 1.83612 13.533 2.21429 14.1466 3.31805L15.8133 6.31583C16.4269 7.41958 16.0628 8.83094 14.9999 9.4682C13.937 10.1054 12.5779 9.72728 11.9643 8.62352L10.2976 5.62574ZM24.9999 27.4549C23.937 28.0922 23.5728 29.5035 24.1865 30.6072L25.8531 33.6051C26.4668 34.7088 27.8259 35.0869 28.8888 34.4497C29.9517 33.8125 30.3158 32.4011 29.7022 31.2974L28.0355 28.2995C27.4219 27.1958 26.0628 26.8177 24.9999 27.4549ZM7.6395 28.5369C6.57664 29.1742 5.21755 28.796 4.6039 27.6923C3.99024 26.5886 4.35442 25.1772 5.41728 24.54L8.30403 22.8092C9.36691 22.1718 10.726 22.5502 11.3397 23.6538C11.9533 24.7575 11.5891 26.1689 10.5263 26.8062L7.6395 28.5369ZM28.6601 13.2692C29.2739 14.373 30.6328 14.7512 31.6958 14.1139L34.5825 12.3831C35.6454 11.7459 36.0096 10.3345 35.3959 9.23077C34.7823 8.12702 33.4232 7.74885 32.3602 8.38609L29.4736 10.1169C28.4106 10.7541 28.0465 12.1655 28.6601 13.2692ZM25.8531 3.31805C26.4668 2.21429 27.8259 1.83612 28.8888 2.47337C29.9517 3.11063 30.3158 4.52198 29.7022 5.62574L28.0355 8.62352C27.4219 9.72728 26.0628 10.1054 24.9999 9.4682C23.937 8.83094 23.5728 7.41958 24.1865 6.31583L25.8531 3.31805ZM14.9999 27.4549C13.937 26.8177 12.5779 27.1958 11.9643 28.2995L10.2976 31.2974C9.68398 32.4011 10.0481 33.8125 11.111 34.4497C12.1739 35.0869 13.533 34.7088 14.1466 33.6051L15.8133 30.6072C16.4269 29.5035 16.0628 28.0922 14.9999 27.4549ZM5.41728 12.3831C4.3544 11.7459 3.99024 10.3345 4.6039 9.23077C5.21755 8.12702 6.57664 7.74885 7.6395 8.38609L10.5263 10.1169C11.5891 10.7541 11.9533 12.1655 11.3397 13.2692C10.726 14.373 9.36691 14.7512 8.30403 14.1139L5.41728 12.3831ZM28.6601 23.6538C28.0465 24.7575 28.4106 26.1689 29.4736 26.8062L32.3602 28.5369C33.4232 29.1742 34.7823 28.796 35.3959 27.6923C36.0096 26.5886 35.6454 25.1772 34.5825 24.54L31.6958 22.8092C30.6328 22.1718 29.2739 22.5502 28.6601 23.6538Z" fill="#E4B201"/>
</g>
<path d="M15.5557 13.8462H24.4446" stroke="white" stroke-width="0.5" stroke-linecap="round"/>
<path d="M15.5557 23.0769H24.4446" stroke="white" stroke-width="0.5" stroke-linecap="round"/>
<path d="M14.074 16.9231H25.9258" stroke="white" stroke-width="0.5" stroke-linecap="round"/>
<path d="M14.074 20H25.9258" stroke="white" stroke-width="0.5" stroke-linecap="round"/>
<defs>
<filter id="filter0_d_2_458" x="1.22217" y="0" width="37.5557" height="38.9231" filterUnits="userSpaceOnUse" color-interpolation-filters="sRGB">
<feFlood flood-opacity="0" result="BackgroundImageFix"/>
<feColorMatrix in="SourceAlpha" type="matrix" values="0 0 0 0 0 0 0 0 0 0 0 0 0 0 0 0 0 0 127 0" result="hardAlpha"/>
<feOffset dy="1"/>
<feGaussianBlur stdDeviation="0.5"/>
<feComposite in2="hardAlpha" operator="out"/>
<feColorMatrix type="matrix" values="0 0 0 0 0 0 0 0 0 0 0 0 0 0 0 0 0 0 0.1 0"/>
<feBlend mode="normal" in2="BackgroundImageFix" result="effect1_dropShadow_2_458"/>
<feBlend mode="normal" in="SourceGraphic" in2="effect1_dropShadow_2_458" result="shape"/>
</filter>
</defs>
</svg>
