<svg width="25" height="25" viewBox="0 0 25 25" fill="none" xmlns="http://www.w3.org/2000/svg">
<rect width="6.80851" height="6.80851" transform="matrix(0.866025 -0.5 0.866025 0.5 6.91406 10.437)" fill="#404F51"/>
<path d="M5.21094 8.41642L10.9052 5.0769L12.7544 7.2749L7.11989 10.3393L5.21094 8.41642Z" fill="#6D8489"/>
<path d="M20.2998 10.2741L15.0278 7.01965L12.6554 7.27486L18.3432 10.2741H20.2998Z" fill="#677D7F"/>
<rect width="5.44681" height="5.44681" transform="matrix(0.866025 -0.5 0.866025 0.5 8.09351 7.37317)" fill="#3E5A72"/>
<rect width="5.44681" height="5.44681" transform="matrix(0.866025 -0.5 2.20305e-08 1 12.8105 10.0966)" fill="#2B3E51"/>
<rect width="5.44681" height="5.44681" transform="matrix(-0.866025 -0.5 -2.20305e-08 1 12.8311 10.0966)" fill="#2D4654"/>
<rect width="1.67945" height="6.80851" transform="matrix(0.866025 -0.5 2.20305e-08 1 14.6062 9.08423)" fill="#1E9679"/>
<rect width="1.67945" height="6.80851" transform="matrix(-0.866025 -0.5 -2.20305e-08 1 11.0723 9.08423)" fill="#1E9679"/>
<path d="M9.79968 6.3773L11.1077 5.62903L16.0607 8.24451L14.5855 9.0902L9.79968 6.3773Z" fill="#24BD9C"/>
<path d="M15.8646 6.3773L14.5566 5.62903L9.60357 8.24451L11.0788 9.0902L15.8646 6.3773Z" fill="#24BD9C"/>
<rect width="6.80851" height="6.80851" transform="matrix(0.866025 -0.5 2.20305e-08 1 12.8105 13.8414)" fill="#374347"/>
<rect width="6.80851" height="6.80851" transform="matrix(-0.866025 -0.5 -2.20305e-08 1 12.8105 13.8414)" fill="#495A5E"/>
<path d="M12.7952 13.6138L18.4895 10.2743L21.4008 11.9869L15.4665 15.192L12.7952 13.6138Z" fill="#6D8489"/>
<path d="M12.7952 13.6138L7.10086 10.2743L4.22028 10.7019L9.99083 13.9563L12.7952 13.6138Z" fill="#677D7F"/>
<path d="M12.4357 7.81987C12.4357 7.81987 11.782 7.51189 11.4478 7.31893C11.1136 7.12598 10.7498 6.84991 10.7498 6.61304C10.7498 6.37616 11.1136 6.26817 11.4478 6.46113C11.782 6.65408 12.4357 7.81987 12.4357 7.81987Z" fill="#1F9B7D"/>
<path d="M13.6234 6.96C13.6234 6.96 12.9698 6.65202 12.6356 6.45907C12.3013 6.26612 11.9375 5.99005 11.9375 5.75317C11.9375 5.5163 12.3013 5.40831 12.6356 5.60126C12.9698 5.79421 13.6234 6.96 13.6234 6.96Z" fill="#24BD9C"/>
<path d="M12.4725 7.83451C12.4725 7.83451 13.0894 7.4598 13.4236 7.65276C13.7578 7.84571 14.1274 8.33421 14.1274 8.57109C14.1274 8.80796 13.7578 8.65256 13.4236 8.4596C13.0894 8.26665 12.4725 7.83451 12.4725 7.83451Z" fill="#1F9B7D"/>
<path d="M13.6786 6.95341C13.6786 6.95341 14.2955 6.5787 14.6297 6.77165C14.9639 6.9646 15.3335 7.45311 15.3335 7.68998C15.3335 7.92686 14.9639 7.77145 14.6297 7.5785C14.2955 7.38555 13.6786 6.95341 13.6786 6.95341Z" fill="#24BD9C"/>
<path d="M12.0352 5.58545L13.5807 6.89613L15.3342 7.76199L14.2357 8.39622L12.8312 7.03438L10.9366 6.21968L12.0352 5.58545Z" fill="#24BD9C"/>
</svg>
