<svg width="25" height="25" viewBox="0 0 25 25" fill="none" xmlns="http://www.w3.org/2000/svg">
<path fill-rule="evenodd" clip-rule="evenodd" d="M7.99078 10.5111L10.8789 13.3992L10.7433 14.4839L7.07558 10.8162C6.9071 10.6477 6.9071 10.3745 7.07558 10.206L8.20991 9.0717L8.78577 9.71611L7.99078 10.5111ZM14.8778 14.4839L14.7422 13.3992L17.6303 10.5111L16.8353 9.71613L17.4112 9.07172L18.5455 10.206C18.714 10.3745 18.714 10.6477 18.5455 10.8162L14.8778 14.4839ZM15.2556 6.91615L14.4182 7.29898L12.8105 5.69135L11.2029 7.29897L10.3655 6.91614L12.5055 4.77614C12.674 4.60766 12.9471 4.60766 13.1156 4.77614L15.2556 6.91615ZM8.69384 6.86354C8.61089 6.82562 8.51306 6.84397 8.44949 6.90936L7.9102 7.46405C7.83125 7.54526 7.82855 7.67371 7.90402 7.75816L10.4926 10.6549C10.5321 10.6991 10.5881 10.7251 10.6474 10.7268C10.7067 10.7285 10.764 10.7056 10.806 10.6637L12.5317 8.93798C12.5817 8.88801 12.604 8.81674 12.5915 8.74719C12.5789 8.67764 12.5331 8.61864 12.4689 8.58926L8.69384 6.86354ZM16.9274 6.86354C17.0103 6.82562 17.1081 6.84397 17.1717 6.90936L17.711 7.46405C17.79 7.54526 17.7927 7.67371 17.7172 7.75816L15.1286 10.6549C15.0891 10.6991 15.0331 10.7251 14.9738 10.7268C14.9145 10.7285 14.8572 10.7056 14.8152 10.6637L13.0895 8.93798C13.0395 8.88801 13.0172 8.81674 13.0297 8.74719C13.0423 8.67764 13.0881 8.61864 13.1524 8.58926L16.9274 6.86354ZM12.8106 9.43259C12.8678 9.43259 12.9227 9.45532 12.9631 9.49577L13.826 10.3586C13.8665 10.3991 13.8892 10.454 13.8892 10.5112C13.8892 10.5684 13.8665 10.6232 13.826 10.6637L12.9631 11.5266C12.8789 11.6108 12.7423 11.6108 12.6581 11.5266L11.7952 10.6637C11.711 10.5795 11.711 10.4429 11.7952 10.3586L12.6581 9.49577C12.6985 9.45532 12.7534 9.43259 12.8106 9.43259ZM11.8777 11.6014C11.9557 11.5747 12.042 11.5947 12.1003 11.6529L12.8106 12.3633L13.5209 11.6529C13.5792 11.5947 13.6655 11.5747 13.7435 11.6014C13.8214 11.6282 13.8773 11.697 13.8875 11.7787L14.7504 18.6816C14.7586 18.7476 14.7359 18.8138 14.6889 18.8609L12.9631 20.5866C12.8789 20.6708 12.7423 20.6708 12.6581 20.5866L10.9323 18.8609C10.8853 18.8138 10.8626 18.7476 10.8708 18.6816L11.7337 11.7787C11.7439 11.697 11.7998 11.6282 11.8777 11.6014Z" fill="#2F67E6"/>
</svg>
