<svg width="25" height="25" viewBox="0 0 25 25" fill="none" xmlns="http://www.w3.org/2000/svg">
<g clip-path="url(#clip0_172_4375)">
<path d="M13.3245 4.64978V8.39978C13.3245 10.4707 15.0005 12.1498 17.0675 12.1498C19.1345 12.1498 20.8105 10.4707 20.8105 8.39978V4.64978H13.3105H13.3245Z" fill="#1D75BB"/>
<path d="M20.8105 14.8009H19.1583V13.1498H14.9576V14.8009H13.3054V18.9987H14.9576V20.6498H19.1583V18.9987H20.8105V14.8009Z" fill="#FFD100"/>
<g filter="url(#filter0_d_172_4375)">
<path d="M12.2996 7.56067L10.852 10.2365C10.5778 10.73 10.9397 11.3441 11.51 11.3441H11.5649C11.9816 11.3441 12.3106 11.0042 12.3106 10.5984V7.57164L12.2996 7.56067Z" fill="#FF3E3E"/>
</g>
<path d="M10.9845 5.45483C10.5568 5.45483 10.1619 5.68517 9.96447 6.06907L8.04498 9.62286C7.62818 10.4016 8.18757 11.3449 9.06505 11.3449C9.49282 11.3449 9.88767 11.1146 10.0851 10.7307L12.0046 7.17689C12.4214 6.39812 11.862 5.45483 10.9845 5.45483Z" fill="#FF3E3E"/>
<path d="M7.89078 5.45471C7.46301 5.45471 7.06815 5.68505 6.87072 6.06895L4.95123 9.62274C4.53443 10.4015 5.09382 11.3448 5.9713 11.3448C6.39907 11.3448 6.79392 11.1145 6.99136 10.7306L8.91085 7.17677C9.32765 6.398 8.76826 5.45471 7.89078 5.45471Z" fill="#FF3E3E"/>
<path d="M11.0167 12.6498H6.60439C5.6062 12.6498 4.81055 13.4599 4.81055 14.4436C4.81055 15.4274 5.62066 16.2375 6.60439 16.2375H11.0167C12.0149 16.2375 12.8105 15.4274 12.8105 14.4436C12.8105 13.4454 12.0004 12.6498 11.0167 12.6498Z" fill="#009845"/>
<path d="M11.0167 16.8159H6.60439C5.6062 16.8159 4.81055 17.6261 4.81055 18.6098C4.81055 19.608 5.62066 20.4036 6.60439 20.4036H11.0167C12.0149 20.4036 12.8105 19.5935 12.8105 18.6098C12.8105 17.6116 12.0004 16.8159 11.0167 16.8159Z" fill="#009845"/>
</g>
<defs>
<filter id="filter0_d_172_4375" x="-17.6403" y="-20.8382" width="58.3498" height="60.5812" filterUnits="userSpaceOnUse" color-interpolation-filters="sRGB">
<feFlood flood-opacity="0" result="BackgroundImageFix"/>
<feColorMatrix in="SourceAlpha" type="matrix" values="0 0 0 0 0 0 0 0 0 0 0 0 0 0 0 0 0 0 127 0" result="hardAlpha"/>
<feOffset/>
<feGaussianBlur stdDeviation="14.1994"/>
<feColorMatrix type="matrix" values="0 0 0 0 0.890196 0 0 0 0 0.301961 0 0 0 0 0.215686 0 0 0 0.6 0"/>
<feBlend mode="normal" in2="BackgroundImageFix" result="effect1_dropShadow_172_4375"/>
<feBlend mode="normal" in="SourceGraphic" in2="effect1_dropShadow_172_4375" result="shape"/>
</filter>
<clipPath id="clip0_172_4375">
<rect width="16" height="16" fill="white" transform="translate(4.81055 4.64978)"/>
</clipPath>
</defs>
</svg>
