<svg width="25" height="25" viewBox="0 0 25 25" fill="none" xmlns="http://www.w3.org/2000/svg">
<path d="M4.81055 10.1606H6.20207V10.6907C6.20207 10.6907 6.29184 10.5112 6.50773 10.3402C6.72362 10.1606 7.07417 9.98962 7.59358 9.98962C7.93559 9.98962 8.36522 10.0794 8.73288 10.4663C8.83975 10.5732 8.94021 10.7078 9.02999 10.8788C9.12832 10.7271 9.24588 10.5732 9.38909 10.4471C9.68621 10.1777 10.0902 9.98962 10.6096 9.98962C10.9602 9.98962 11.5159 10.0708 11.9199 10.4919C12.3859 10.9857 12.4586 11.317 12.4586 12.4221V15.1432H10.9687V12.4948C10.9687 12.2874 10.9687 12.0181 10.8704 11.7937C10.7806 11.5607 10.5925 11.3897 10.2056 11.3897C9.79308 11.3897 9.58574 11.5778 9.48742 11.8022C9.38054 12.0267 9.38054 12.2789 9.38054 12.4221V15.1432H7.8907V12.4307C7.8907 12.296 7.8907 12.0352 7.80092 11.8108C7.7026 11.5778 7.52305 11.3897 7.14471 11.3897C6.72362 11.3897 6.51628 11.5863 6.4094 11.83C6.30253 12.0716 6.30253 12.3409 6.30253 12.4948V15.1432H4.81055V10.1606Z" fill="#333333"/>
<path d="M20.8104 15.1388H19.4188V14.6087C19.4188 14.6087 19.3291 14.7882 19.1132 14.9592C18.8973 15.1388 18.5467 15.3098 18.0273 15.3098C17.6853 15.3098 17.2557 15.22 16.888 14.8331C16.7812 14.7262 16.6807 14.5916 16.5909 14.4206C16.4926 14.5723 16.375 14.7262 16.2318 14.8524C15.9347 15.1217 15.5307 15.3098 15.0113 15.3098C14.6607 15.3098 14.105 15.2286 13.701 14.8075C13.235 14.3137 13.1624 13.9824 13.1624 12.8773V10.1562H14.6522V12.8046C14.6522 13.012 14.6522 13.2813 14.7505 13.5057C14.8403 13.7387 15.0284 13.9097 15.4153 13.9097C15.8278 13.9097 16.0352 13.7216 16.1335 13.4972C16.2404 13.2727 16.2404 13.0205 16.2404 12.8773V10.1562H17.7302V12.8687C17.7302 13.0034 17.7302 13.2642 17.82 13.4886C17.9183 13.7216 18.0979 13.9097 18.4762 13.9097C18.8973 13.9097 19.1046 13.7131 19.2115 13.4694C19.3184 13.2279 19.3184 12.9585 19.3184 12.8046V10.1562H20.8082V15.1388H20.8104Z" fill="#333333"/>
</svg>
