<svg width="27" height="26" viewBox="0 0 27 26" fill="none" xmlns="http://www.w3.org/2000/svg">
<g filter="url(#filter0_d_190_54)">
<path d="M19.5 12C19.5 15.3137 16.8137 18 13.5 18C10.1863 18 7.5 15.3137 7.5 12C7.5 8.68629 10.1863 6 13.5 6C16.8137 6 19.5 8.68629 19.5 12Z" fill="#FFC700"/>
<path d="M12 1.5C12 0.671573 12.6716 0 13.5 0C14.3284 0 15 0.671573 15 1.5V3.75C15 4.57843 14.3284 5.25 13.5 5.25C12.6716 5.25 12 4.57843 12 3.75V1.5Z" fill="#FFC700"/>
<path d="M12 20.25C12 19.4216 12.6716 18.75 13.5 18.75C14.3284 18.75 15 19.4216 15 20.25V22.5C15 23.3284 14.3284 24 13.5 24C12.6716 24 12 23.3284 12 22.5V20.25Z" fill="#FFC700"/>
<path d="M3 13.5C2.17157 13.5 1.5 12.8284 1.5 12C1.5 11.1716 2.17157 10.5 3 10.5H5.25C6.07843 10.5 6.75 11.1716 6.75 12C6.75 12.8284 6.07843 13.5 5.25 13.5H3Z" fill="#FFC700"/>
<path d="M21.75 13.5C20.9216 13.5 20.25 12.8284 20.25 12C20.25 11.1716 20.9216 10.5 21.75 10.5H24C24.8284 10.5 25.5 11.1716 25.5 12C25.5 12.8284 24.8284 13.5 24 13.5H21.75Z" fill="#FFC700"/>
<path d="M6.95093 3.65673C6.53672 2.93929 6.78253 2.02191 7.49997 1.60769C8.21741 1.19348 9.13479 1.43929 9.54901 2.15673L10.674 4.10529C11.0882 4.82273 10.8424 5.74011 10.125 6.15433C9.40753 6.56854 8.49015 6.32273 8.07593 5.60529L6.95093 3.65673Z" fill="#FFC700"/>
<path d="M16.3259 19.8947C15.9117 19.1773 16.1575 18.2599 16.875 17.8457C17.5924 17.4315 18.5098 17.6773 18.924 18.3947L20.049 20.3433C20.4632 21.0607 20.2174 21.9781 19.5 22.3923C18.7825 22.8065 17.8651 22.5607 17.4509 21.8433L16.3259 19.8947Z" fill="#FFC700"/>
<path d="M5.1567 18.549C4.43927 18.9632 3.52188 18.7174 3.10767 18C2.69345 17.2826 2.93927 16.3652 3.6567 15.951L5.60526 14.826C6.3227 14.4117 7.24009 14.6576 7.6543 15.375C8.06851 16.0924 7.8227 17.0098 7.10526 17.424L5.1567 18.549Z" fill="#FFC700"/>
<path d="M21.3947 9.17404C20.6772 9.58825 19.7599 9.34244 19.3456 8.625C18.9314 7.90756 19.1772 6.99018 19.8947 6.57596L21.8432 5.45096C22.5607 5.03675 23.4781 5.28256 23.8923 6C24.3065 6.71744 24.0607 7.63482 23.3432 8.04904L21.3947 9.17404Z" fill="#FFC700"/>
<path d="M17.4509 2.15673C17.8651 1.43929 18.7825 1.19348 19.5 1.60769C20.2174 2.02191 20.4632 2.93929 20.049 3.65673L18.924 5.60529C18.5098 6.32273 17.5924 6.56854 16.875 6.15433C16.1575 5.74011 15.9117 4.82273 16.3259 4.10529L17.4509 2.15673Z" fill="#FFC700"/>
<path d="M8.07593 18.3947C8.49015 17.6773 9.40753 17.4315 10.125 17.8457C10.8424 18.2599 11.0882 19.1773 10.674 19.8947L9.54901 21.8433C9.13479 22.5607 8.21741 22.8065 7.49997 22.3923C6.78253 21.9781 6.53672 21.0607 6.95093 20.3433L8.07593 18.3947Z" fill="#FFC700"/>
<path d="M3.6567 8.04904C2.93927 7.63482 2.69345 6.71744 3.10767 6C3.52188 5.28256 4.43927 5.03675 5.1567 5.45096L7.10526 6.57596C7.8227 6.99018 8.06851 7.90756 7.6543 8.625C7.24009 9.34244 6.3227 9.58825 5.60526 9.17404L3.6567 8.04904Z" fill="#FFC700"/>
<path d="M19.8947 17.424C19.1772 17.0098 18.9314 16.0924 19.3456 15.375C19.7599 14.6576 20.6772 14.4117 21.3947 14.826L23.3432 15.951C24.0607 16.3652 24.3065 17.2826 23.8923 18C23.4781 18.7174 22.5607 18.9632 21.8432 18.549L19.8947 17.424Z" fill="#FFC700"/>
<path fill-rule="evenodd" clip-rule="evenodd" d="M13.5 17.835C16.7226 17.835 19.335 15.2226 19.335 12C19.335 8.77742 16.7226 6.165 13.5 6.165C10.2774 6.165 7.665 8.77742 7.665 12C7.665 15.2226 10.2774 17.835 13.5 17.835ZM14.835 3.75V1.5C14.835 0.7627 14.2373 0.165 13.5 0.165C12.7627 0.165 12.165 0.7627 12.165 1.5V3.75C12.165 4.4873 12.7627 5.085 13.5 5.085C14.2373 5.085 14.835 4.4873 14.835 3.75ZM14.835 22.5V20.25C14.835 19.5127 14.2373 18.915 13.5 18.915C12.7627 18.915 12.165 19.5127 12.165 20.25V22.5C12.165 23.2373 12.7627 23.835 13.5 23.835C14.2373 23.835 14.835 23.2373 14.835 22.5ZM5.25 10.665H3C2.2627 10.665 1.665 11.2627 1.665 12C1.665 12.7373 2.2627 13.335 3 13.335H5.25C5.9873 13.335 6.585 12.7373 6.585 12C6.585 11.2627 5.9873 10.665 5.25 10.665ZM24 10.665H21.75C21.0127 10.665 20.415 11.2627 20.415 12C20.415 12.7373 21.0127 13.335 21.75 13.335H24C24.7373 13.335 25.335 12.7373 25.335 12C25.335 11.2627 24.7373 10.665 24 10.665ZM10.5311 4.18779L9.40612 2.23923C9.03746 1.60071 8.22099 1.38194 7.58247 1.75059C6.94395 2.11924 6.72518 2.93571 7.09383 3.57423L8.21883 5.52279C8.58748 6.16131 9.40395 6.38008 10.0425 6.01143C10.681 5.64278 10.8998 4.82631 10.5311 4.18779ZM19.9061 20.4258L18.7811 18.4772C18.4125 17.8387 17.596 17.6199 16.9575 17.9886C16.3189 18.3572 16.1002 19.1737 16.4688 19.8122L17.5938 21.7608C17.9625 22.3993 18.7789 22.6181 19.4175 22.2494C20.056 21.8808 20.2748 21.0643 19.9061 20.4258ZM5.68776 14.9689L3.7392 16.0939C3.10068 16.4625 2.88191 17.279 3.25056 17.9175C3.61921 18.556 4.43568 18.7748 5.0742 18.4061L7.02276 17.2811C7.66128 16.9125 7.88005 16.096 7.5114 15.4575C7.14275 14.819 6.32628 14.6002 5.68776 14.9689ZM21.9257 5.59386L19.9772 6.71886C19.3387 7.08751 19.1199 7.90398 19.4885 8.5425C19.8572 9.18102 20.6737 9.39979 21.3122 9.03114L23.2607 7.90614C23.8993 7.53749 24.118 6.72102 23.7494 6.0825C23.3807 5.44398 22.5643 5.22521 21.9257 5.59386ZM18.7811 5.52279L19.9061 3.57423C20.2748 2.93571 20.056 2.11924 19.4175 1.75059C18.7789 1.38194 17.9625 1.60071 17.5938 2.23923L16.4688 4.18779C16.1002 4.82631 16.3189 5.64278 16.9575 6.01143C17.596 6.38008 18.4125 6.16131 18.7811 5.52279ZM9.40612 21.7608L10.5311 19.8122C10.8998 19.1737 10.681 18.3572 10.0425 17.9886C9.40395 17.6199 8.58748 17.8387 8.21883 18.4772L7.09383 20.4258C6.72518 21.0643 6.94395 21.8808 7.58247 22.2494C8.22099 22.6181 9.03746 22.3993 9.40612 21.7608ZM7.02276 6.71886L5.0742 5.59386C4.43568 5.22521 3.61921 5.44398 3.25056 6.0825C2.88191 6.72102 3.10068 7.53749 3.7392 7.90614L5.68776 9.03114C6.32628 9.39979 7.14275 9.18102 7.5114 8.5425C7.88005 7.90398 7.66128 7.08751 7.02276 6.71886ZM23.2607 16.0939L21.3122 14.9689C20.6737 14.6002 19.8572 14.819 19.4885 15.4575C19.1199 16.096 19.3387 16.9125 19.9772 17.2811L21.9257 18.4061C22.5643 18.7748 23.3807 18.556 23.7494 17.9175C24.118 17.279 23.8993 16.4625 23.2607 16.0939ZM12 1.5C12 0.671573 12.6716 0 13.5 0C14.3284 0 15 0.671573 15 1.5V3.75C15 4.57843 14.3284 5.25 13.5 5.25C12.6716 5.25 12 4.57843 12 3.75V1.5ZM19.5 12C19.5 15.3137 16.8137 18 13.5 18C10.1863 18 7.5 15.3137 7.5 12C7.5 8.68629 10.1863 6 13.5 6C16.8137 6 19.5 8.68629 19.5 12ZM13.5 18.75C12.6716 18.75 12 19.4216 12 20.25V22.5C12 23.3284 12.6716 24 13.5 24C14.3284 24 15 23.3284 15 22.5V20.25C15 19.4216 14.3284 18.75 13.5 18.75ZM3 13.5C2.17157 13.5 1.5 12.8284 1.5 12C1.5 11.1716 2.17157 10.5 3 10.5H5.25C6.07843 10.5 6.75 11.1716 6.75 12C6.75 12.8284 6.07843 13.5 5.25 13.5H3ZM20.25 12C20.25 12.8284 20.9216 13.5 21.75 13.5H24C24.8284 13.5 25.5 12.8284 25.5 12C25.5 11.1716 24.8284 10.5 24 10.5H21.75C20.9216 10.5 20.25 11.1716 20.25 12ZM6.95093 3.65673C6.53672 2.93929 6.78253 2.02191 7.49997 1.60769C8.21741 1.19348 9.1348 1.43929 9.54901 2.15673L10.674 4.10529C11.0882 4.82273 10.8424 5.74011 10.125 6.15433C9.40753 6.56854 8.49015 6.32273 8.07593 5.60529L6.95093 3.65673ZM16.875 17.8457C16.1575 18.2599 15.9117 19.1773 16.3259 19.8947L17.4509 21.8433C17.8651 22.5607 18.7825 22.8065 19.5 22.3923C20.2174 21.9781 20.4632 21.0607 20.049 20.3433L18.924 18.3947C18.5098 17.6773 17.5924 17.4315 16.875 17.8457ZM5.1567 18.549C4.43927 18.9632 3.52188 18.7174 3.10767 18C2.69345 17.2826 2.93927 16.3652 3.6567 15.951L5.60526 14.826C6.3227 14.4117 7.24009 14.6576 7.6543 15.375C8.06851 16.0924 7.8227 17.0098 7.10526 17.424L5.1567 18.549ZM19.3456 8.625C19.7599 9.34244 20.6772 9.58825 21.3947 9.17404L23.3432 8.04904C24.0607 7.63482 24.3065 6.71744 23.8923 6C23.4781 5.28256 22.5607 5.03675 21.8432 5.45096L19.8947 6.57596C19.1772 6.99018 18.9314 7.90756 19.3456 8.625ZM17.4509 2.15673C17.8651 1.43929 18.7825 1.19348 19.5 1.60769C20.2174 2.02191 20.4632 2.93929 20.049 3.65673L18.924 5.60529C18.5098 6.32273 17.5924 6.56854 16.875 6.15433C16.1575 5.74011 15.9117 4.82273 16.3259 4.10529L17.4509 2.15673ZM10.125 17.8457C9.40753 17.4315 8.49015 17.6773 8.07593 18.3947L6.95093 20.3433C6.53672 21.0607 6.78253 21.9781 7.49997 22.3923C8.21741 22.8065 9.1348 22.5607 9.54901 21.8433L10.674 19.8947C11.0882 19.1773 10.8424 18.2599 10.125 17.8457ZM3.6567 8.04904C2.93926 7.63482 2.69345 6.71744 3.10767 6C3.52188 5.28256 4.43927 5.03675 5.1567 5.45096L7.10526 6.57596C7.8227 6.99018 8.06851 7.90756 7.6543 8.625C7.24009 9.34244 6.3227 9.58825 5.60526 9.17404L3.6567 8.04904ZM19.3456 15.375C18.9314 16.0924 19.1772 17.0098 19.8947 17.424L21.8432 18.549C22.5607 18.9632 23.4781 18.7174 23.8923 18C24.3065 17.2826 24.0607 16.3652 23.3432 15.951L21.3947 14.826C20.6772 14.4117 19.7599 14.6576 19.3456 15.375Z" fill="#E4B201"/>
</g>
<path d="M10.5 9H16.5" stroke="white" stroke-width="0.5" stroke-linecap="round"/>
<path d="M10.5 15H16.5" stroke="white" stroke-width="0.5" stroke-linecap="round"/>
<path d="M9.5 11H17.5" stroke="white" stroke-width="0.5" stroke-linecap="round"/>
<path d="M9.5 13H17.5" stroke="white" stroke-width="0.5" stroke-linecap="round"/>
<defs>
<filter id="filter0_d_190_54" x="0.5" y="0" width="26" height="26" filterUnits="userSpaceOnUse" color-interpolation-filters="sRGB">
<feFlood flood-opacity="0" result="BackgroundImageFix"/>
<feColorMatrix in="SourceAlpha" type="matrix" values="0 0 0 0 0 0 0 0 0 0 0 0 0 0 0 0 0 0 127 0" result="hardAlpha"/>
<feOffset dy="1"/>
<feGaussianBlur stdDeviation="0.5"/>
<feComposite in2="hardAlpha" operator="out"/>
<feColorMatrix type="matrix" values="0 0 0 0 0 0 0 0 0 0 0 0 0 0 0 0 0 0 0.1 0"/>
<feBlend mode="normal" in2="BackgroundImageFix" result="effect1_dropShadow_190_54"/>
<feBlend mode="normal" in="SourceGraphic" in2="effect1_dropShadow_190_54" result="shape"/>
</filter>
</defs>
</svg>
